<?xml version="1.0" encoding="UTF-8" standalone="no"?>
<!DOCTYPE svg PUBLIC "-//W3C//DTD SVG 1.1//EN" "http://www.w3.org/Graphics/SVG/1.1/DTD/svg11.dtd">
<svg width="300" height="108" viewBox="0 0 20 4" version="1.1" xmlns="http://www.w3.org/2000/svg" xmlns:xlink="http://www.w3.org/1999/xlink" xml:space="preserve" xmlns:serif="http://www.serif.com/" style="fill-rule:evenodd;clip-rule:evenodd;stroke-linejoin:round;stroke-miterlimit:2;">
    <g transform="matrix(0.281725,0,0,0.281725,-1.58639,-9.65556)">
        <path d="M76.3,41.807L76.685,41.033L76.208,40.312L75.343,40.366L74.958,41.14L75.437,41.861L76.3,41.807Z" style="fill-rule:nonzero;"/>
        <path d="M75.353,41.674L75.625,41.126L75.287,40.617L74.679,40.653L74.404,41.202L74.744,41.711L75.353,41.674Z" style="fill-rule:nonzero;"/>
        <path d="M74.456,43.757L74.75,43.169L74.385,42.621L73.73,42.661L73.435,43.25L73.8,43.798L74.456,43.757Z" style="fill-rule:nonzero;"/>
        <path d="M72.906,47.396L73.198,46.808L72.835,46.258L72.181,46.299L71.886,46.889L72.25,47.437L72.906,47.396Z" style="fill-rule:nonzero;"/>
        <path d="M76.538,49.12L76.756,48.685L76.486,48.279L76.001,48.31L75.787,48.745L76.053,49.149L76.538,49.12Z" style="fill-rule:nonzero;"/>
        <path d="M72.504,45.081L72.851,44.386L72.42,43.741L71.647,43.789L71.301,44.482L71.73,45.129L72.504,45.081Z" style="fill-rule:nonzero;"/>
        <path d="M75.737,48.293L76.015,47.738L75.672,47.222L75.054,47.26L74.778,47.815L75.121,48.332L75.737,48.293Z" style="fill-rule:nonzero;"/>
        <path d="M75.444,46.406L75.802,45.689L75.359,45.023L74.563,45.073L74.204,45.788L74.648,46.456L75.444,46.406Z" style="fill-rule:nonzero;"/>
        <path d="M76.426,44.019L76.623,43.623L76.379,43.257L75.94,43.285L75.743,43.678L75.987,44.046L76.426,44.019Z" style="fill-rule:nonzero;"/>
        <path d="M73.251,41.292L73.392,41.01L73.217,40.744L72.899,40.765L72.76,41.049L72.934,41.311L73.251,41.292Z" style="fill-rule:nonzero;"/>
        <path d="M72.426,42.405L72.566,42.121L72.392,41.858L72.076,41.877L71.936,42.161L72.109,42.424L72.426,42.405Z" style="fill-rule:nonzero;"/>
        <path d="M72.145,42.513L72.26,42.283L72.117,42.066L71.859,42.083L71.744,42.314L71.887,42.528L72.145,42.513Z" style="fill-rule:nonzero;"/>
        <path d="M73.781,48.854L73.977,48.46L73.734,48.092L73.293,48.119L73.099,48.515L73.341,48.881L73.781,48.854Z" style="fill-rule:nonzero;"/>
        <path d="M73.37,49.344L73.567,48.951L73.322,48.585L72.884,48.612L72.689,49.006L72.932,49.372L73.37,49.344Z" style="fill-rule:nonzero;"/>
        <path d="M71.315,41.246L71.512,40.85L71.268,40.483L70.829,40.511L70.633,40.904L70.876,41.273L71.315,41.246Z" style="fill-rule:nonzero;"/>
        <path d="M74.741,46.833L74.939,46.438L74.695,46.07L74.255,46.098L74.06,46.493L74.303,46.86L74.741,46.833Z" style="fill-rule:nonzero;"/>
        <path d="M43.574,40.174L43.095,39.452L43.48,38.677L44.344,38.624L44.821,39.345L44.438,40.121L43.574,40.174Z" style="fill-rule:nonzero;"/>
        <path d="M44.498,39.924L44.158,39.415L44.432,38.867L45.04,38.828L45.377,39.339L45.106,39.886L44.498,39.924Z" style="fill-rule:nonzero;"/>
        <path d="M19.248,54.237L18.768,53.514L19.154,52.74L20.018,52.686L20.494,53.406L20.108,54.183L19.248,54.237Z" style="fill-rule:nonzero;"/>
        <path d="M20.169,53.987L19.831,53.478L20.103,52.93L20.711,52.892L21.051,53.401L20.777,53.949L20.169,53.987Z" style="fill-rule:nonzero;"/>
        <path d="M46.46,42.833L46.096,42.286L46.389,41.696L47.044,41.655L47.408,42.203L47.115,42.792L46.46,42.833Z" style="fill-rule:nonzero;"/>
        <path d="M41.604,41.195L41.241,40.645L41.535,40.057L42.192,40.016L42.555,40.564L42.264,41.154L41.604,41.195Z" style="fill-rule:nonzero;"/>
        <path d="M33.96,48.999L33.598,48.449L33.889,47.861L34.549,47.82L34.91,48.369L34.617,48.958L33.96,48.999Z" style="fill-rule:nonzero;"/>
        <path d="M13.3,52.771L12.958,52.261L13.227,51.71L13.838,51.669L14.18,52.179L13.911,52.729L13.3,52.771Z" style="fill-rule:nonzero;"/>
        <path d="M48.447,46.25L48.08,45.702L48.376,45.114L49.031,45.073L49.396,45.621L49.103,46.21L48.447,46.25Z" style="fill-rule:nonzero;"/>
        <path d="M44.788,48.425L44.52,48.021L44.736,47.586L45.219,47.556L45.487,47.961L45.271,48.395L44.788,48.425Z" style="fill-rule:nonzero;"/>
        <path d="M48.56,43.904L48.129,43.257L48.475,42.562L49.25,42.514L49.68,43.161L49.333,43.856L48.56,43.904Z" style="fill-rule:nonzero;"/>
        <path d="M45.166,47.841L44.826,47.324L45.101,46.772L45.72,46.734L46.06,47.248L45.786,47.803L45.166,47.841Z" style="fill-rule:nonzero;"/>
        <path d="M45.802,45.584L45.361,44.918L45.717,44.199L46.515,44.149L46.959,44.818L46.603,45.533L45.802,45.584Z" style="fill-rule:nonzero;"/>
        <path d="M44.536,43.334L44.292,42.967L44.489,42.572L44.928,42.544L45.172,42.913L44.975,43.307L44.536,43.334Z" style="fill-rule:nonzero;"/>
        <path d="M46.98,37.525L46.736,37.159L46.932,36.763L47.37,36.737L47.613,37.104L47.419,37.498L46.98,37.525Z" style="fill-rule:nonzero;"/>
        <path d="M40.238,44.469L40.058,44.2L40.203,43.909L40.523,43.89L40.704,44.159L40.56,44.448L40.238,44.469Z" style="fill-rule:nonzero;"/>
        <path d="M11.643,52.883L11.461,52.614L11.606,52.324L11.927,52.305L12.108,52.573L11.963,52.864L11.643,52.883Z" style="fill-rule:nonzero;"/>
        <path d="M34.434,47.186L34.253,46.917L34.396,46.629L34.719,46.606L34.897,46.872L34.757,47.164L34.434,47.186Z" style="fill-rule:nonzero;"/>
        <path d="M19.445,52.963L19.267,52.694L19.406,52.403L19.73,52.382L19.908,52.65L19.769,52.94L19.445,52.963Z" style="fill-rule:nonzero;"/>
        <path d="M32.899,48.048L32.757,47.835L32.869,47.606L33.124,47.59L33.267,47.801L33.154,48.031L32.899,48.048Z" style="fill-rule:nonzero;"/>
        <path d="M29.013,50.154L28.873,49.942L28.982,49.714L29.237,49.696L29.38,49.906L29.268,50.136L29.013,50.154Z" style="fill-rule:nonzero;"/>
        <path d="M30.777,49.144L30.69,49.01L30.759,48.862L30.92,48.851L31.014,48.986L30.939,49.133L30.777,49.144Z" style="fill-rule:nonzero;"/>
        <path d="M26.675,51.163L26.57,51.004L26.653,50.831L26.845,50.817L26.949,50.978L26.867,51.149L26.675,51.163Z" style="fill-rule:nonzero;"/>
        <path d="M47.09,50.69L46.986,50.532L47.068,50.359L47.26,50.346L47.364,50.505L47.282,50.678L47.09,50.69Z" style="fill-rule:nonzero;"/>
        <path d="M50.056,47.727L49.95,47.57L50.034,47.397L50.226,47.383L50.332,47.542L50.248,47.715L50.056,47.727Z" style="fill-rule:nonzero;"/>
        <path d="M69.911,58.346L69.806,58.187L69.888,58.014L70.08,58L70.186,58.159L70.103,58.332L69.911,58.346Z" style="fill-rule:nonzero;"/>
        <path d="M62.108,55.415L62.003,55.257L62.085,55.084L62.277,55.07L62.383,55.231L62.3,55.401L62.108,55.415Z" style="fill-rule:nonzero;"/>
        <path d="M28.906,50.302L28.818,50.168L28.887,50.021L29.051,50.01L29.142,50.145L29.07,50.291L28.906,50.302Z" style="fill-rule:nonzero;"/>
        <path d="M24.315,51.916L24.222,51.781L24.296,51.634L24.458,51.622L24.548,51.76L24.477,51.904L24.315,51.916Z" style="fill-rule:nonzero;"/>
        <path d="M16.589,52.74L16.496,52.606L16.567,52.458L16.731,52.447L16.819,52.582L16.751,52.729L16.589,52.74Z" style="fill-rule:nonzero;"/>
        <path d="M47.354,39.829L47.175,39.565L47.317,39.282L47.633,39.263L47.809,39.526L47.666,39.81L47.354,39.829Z" style="fill-rule:nonzero;"/>
        <path d="M42.79,42.49L42.617,42.225L42.757,41.943L43.072,41.922L43.248,42.186L43.105,42.471L42.79,42.49Z" style="fill-rule:nonzero;"/>
        <path d="M30.016,50.439L29.841,50.175L29.98,49.892L30.298,49.873L30.474,50.136L30.331,50.42L30.016,50.439Z" style="fill-rule:nonzero;"/>
        <path d="M48.879,36.869L48.707,36.604L48.847,36.322L49.163,36.301L49.337,36.564L49.195,36.85L48.879,36.869Z" style="fill-rule:nonzero;"/>
        <path d="M40.649,42.623L40.475,42.358L40.614,42.075L40.932,42.055L41.107,42.318L40.965,42.604L40.649,42.623Z" style="fill-rule:nonzero;"/>
        <path d="M21.577,54.404L21.401,54.139L21.542,53.856L21.859,53.837L22.035,54.1L21.893,54.382L21.577,54.404Z" style="fill-rule:nonzero;"/>
        <path d="M41.62,45.807L41.444,45.543L41.584,45.261L41.902,45.24L42.075,45.504L41.935,45.788L41.62,45.807Z" style="fill-rule:nonzero;"/>
        <path d="M48.315,51.158L48.14,50.894L48.282,50.61L48.599,50.591L48.771,50.854L48.633,51.14L48.315,51.158Z" style="fill-rule:nonzero;"/>
        <path d="M48.308,41.24L48.132,40.974L48.272,40.692L48.59,40.673L48.763,40.935L48.622,41.219L48.308,41.24Z" style="fill-rule:nonzero;"/>
        <path d="M48.599,41.311L48.455,41.096L48.57,40.866L48.828,40.85L48.97,41.063L48.856,41.296L48.599,41.311Z" style="fill-rule:nonzero;"/>
        <path d="M47.759,47.805L47.513,47.438L47.712,47.045L48.151,47.019L48.395,47.383L48.197,47.779L47.759,47.805Z" style="fill-rule:nonzero;"/>
        <path d="M48.225,48.244L47.983,47.876L48.179,47.482L48.619,47.455L48.861,47.822L48.667,48.216L48.225,48.244Z" style="fill-rule:nonzero;"/>
        <path d="M43.262,46L43.021,45.635L43.215,45.239L43.656,45.212L43.897,45.581L43.703,45.973L43.262,46Z" style="fill-rule:nonzero;"/>
        <path d="M27.939,51.385L27.697,51.019L27.892,50.623L28.333,50.595L28.574,50.964L28.38,51.357L27.939,51.385Z" style="fill-rule:nonzero;"/>
        <path d="M49.266,40.086L49.022,39.72L49.218,39.324L49.656,39.298L49.901,39.666L49.702,40.059L49.266,40.086Z" style="fill-rule:nonzero;"/>
        <path d="M41.861,44.087L41.579,43.663L41.807,43.209L42.313,43.178L42.593,43.6L42.365,44.056L41.861,44.087Z" style="fill-rule:nonzero;"/>
        <path d="M10.074,51.444L9.792,51.021L10.02,50.566L10.524,50.535L10.807,50.957L10.579,51.414L10.074,51.444Z" style="fill-rule:nonzero;"/>
        <path d="M13.75,54.5L13.569,54.231L13.717,53.941L14.035,53.922L14.216,54.19L14.07,54.48L13.75,54.5Z" style="fill-rule:nonzero;"/>
        <path d="M15.372,54.119L15.09,53.694L15.317,53.239L15.824,53.209L16.106,53.631L15.879,54.089L15.372,54.119Z" style="fill-rule:nonzero;"/>
        <path d="M46.287,45.934L46.046,45.569L46.24,45.173L46.679,45.147L46.923,45.514L46.726,45.907L46.287,45.934Z" style="fill-rule:nonzero;"/>
        <path d="M22.901,53.505L22.463,52.839L22.816,52.121L23.616,52.069L24.058,52.738L23.701,53.456L22.901,53.505Z" style="fill-rule:nonzero;"/>
        <path d="M23.386,53.856L23.145,53.489L23.34,53.094L23.778,53.066L24.024,53.434L23.824,53.829L23.386,53.856Z" style="fill-rule:nonzero;"/>
        <path d="M56.118,44.249L56.594,44.97L56.21,45.744L55.346,45.798L54.869,45.077L55.254,44.303L56.118,44.249Z" style="fill-rule:nonzero;"/>
        <path d="M55.195,44.499L55.533,45.008L55.261,45.554L54.649,45.592L54.313,45.084L54.585,44.537L55.195,44.499Z" style="fill-rule:nonzero;"/>
        <path d="M54.048,42.542L54.411,43.09L54.118,43.678L53.462,43.719L53.097,43.171L53.391,42.582L54.048,42.542Z" style="fill-rule:nonzero;"/>
        <path d="M58.9,44.178L59.265,44.726L58.972,45.317L58.315,45.356L57.951,44.809L58.244,44.219L58.9,44.178Z" style="fill-rule:nonzero;"/>
        <path d="M52.059,39.123L52.424,39.669L52.13,40.26L51.473,40.301L51.111,39.752L51.403,39.163L52.059,39.123Z" style="fill-rule:nonzero;"/>
        <path d="M55.719,36.947L55.987,37.353L55.771,37.787L55.287,37.817L55.02,37.411L55.234,36.977L55.719,36.947Z" style="fill-rule:nonzero;"/>
        <path d="M51.639,42.017L52.069,42.664L51.723,43.358L50.948,43.406L50.52,42.76L50.864,42.065L51.639,42.017Z" style="fill-rule:nonzero;"/>
        <path d="M55.338,37.532L55.682,38.047L55.404,38.602L54.788,38.641L54.444,38.124L54.721,37.57L55.338,37.532Z" style="fill-rule:nonzero;"/>
        <path d="M55.501,39.792L55.941,40.458L55.586,41.173L54.788,41.224L54.346,40.558L54.701,39.841L55.501,39.792Z" style="fill-rule:nonzero;"/>
        <path d="M55.971,42.039L56.213,42.408L56.019,42.799L55.577,42.827L55.335,42.461L55.53,42.066L55.971,42.039Z" style="fill-rule:nonzero;"/>
        <path d="M60.27,40.906L60.449,41.173L60.304,41.463L59.981,41.484L59.804,41.212L59.947,40.926L60.27,40.906Z" style="fill-rule:nonzero;"/>
        <path d="M53.156,45.136L53.33,45.4L53.19,45.683L52.874,45.702L52.697,45.438L52.839,45.155L53.156,45.136Z" style="fill-rule:nonzero;"/>
        <path d="M57.715,42.884L57.892,43.147L57.749,43.433L57.433,43.452L57.26,43.187L57.398,42.904L57.715,42.884Z" style="fill-rule:nonzero;"/>
        <path d="M59.856,42.751L60.032,43.016L59.891,43.3L59.574,43.319L59.4,43.054L59.54,42.772L59.856,42.751Z" style="fill-rule:nonzero;"/>
        <path d="M61.045,45.636L61.222,45.9L61.079,46.184L60.764,46.203L60.589,45.939L60.73,45.655L61.045,45.636Z" style="fill-rule:nonzero;"/>
        <path d="M58.887,39.567L59.061,39.83L58.921,40.115L58.605,40.134L58.431,39.87L58.571,39.586L58.887,39.567Z" style="fill-rule:nonzero;"/>
        <path d="M52.201,44.134L52.373,44.398L52.235,44.682L51.918,44.702L51.741,44.437L51.884,44.155L52.201,44.134Z" style="fill-rule:nonzero;"/>
        <path d="M51.907,44.063L52.049,44.277L51.935,44.508L51.676,44.523L51.535,44.308L51.648,44.078L51.907,44.063Z" style="fill-rule:nonzero;"/>
        <path d="M52.747,37.566L52.991,37.935L52.794,38.327L52.355,38.354L52.113,37.988L52.309,37.593L52.747,37.566Z" style="fill-rule:nonzero;"/>
        <path d="M52.28,37.13L52.522,37.498L52.327,37.891L51.889,37.918L51.645,37.552L51.84,37.158L52.28,37.13Z" style="fill-rule:nonzero;"/>
        <path d="M57.242,39.372L57.487,39.738L57.29,40.133L56.852,40.16L56.607,39.793L56.804,39.398L57.242,39.372Z" style="fill-rule:nonzero;"/>
        <path d="M51.24,45.422L51.485,45.788L51.287,46.184L50.849,46.21L50.605,45.843L50.802,45.45L51.24,45.422Z" style="fill-rule:nonzero;"/>
        <path d="M58.646,41.285L58.928,41.71L58.7,42.165L58.193,42.196L57.911,41.773L58.139,41.317L58.646,41.285Z" style="fill-rule:nonzero;"/>
        <path d="M53.218,40.738L53.5,41.163L53.272,41.62L52.766,41.651L52.483,41.226L52.711,40.77L53.218,40.738Z" style="fill-rule:nonzero;"/>
        <path d="M55.017,39.438L55.261,39.807L55.063,40.2L54.625,40.227L54.381,39.86L54.578,39.465L55.017,39.438Z" style="fill-rule:nonzero;"/>
        <path d="M53.939,35.909L54.381,36.577L54.026,37.292L53.228,37.341L52.786,36.675L53.143,35.958L53.939,35.909Z" style="fill-rule:nonzero;"/>
        <path d="M53.456,35.693L53.701,36.06L53.504,36.455L53.065,36.482L52.821,36.115L53.018,35.72L53.456,35.693Z" style="fill-rule:nonzero;"/>
        <path d="M66.397,45.48L66.873,46.202L66.488,46.976L65.625,47.03L65.147,46.309L65.531,45.533L66.397,45.48Z" style="fill-rule:nonzero;"/>
        <path d="M65.473,45.73L65.811,46.24L65.538,46.789L64.927,46.826L64.592,46.316L64.862,45.768L65.473,45.73Z" style="fill-rule:nonzero;"/>
        <path d="M64.325,43.772L64.689,44.322L64.397,44.911L63.739,44.952L63.376,44.404L63.668,43.813L64.325,43.772Z" style="fill-rule:nonzero;"/>
        <path d="M68.864,45.429L69.228,45.979L68.934,46.568L68.277,46.607L67.914,46.06L68.208,45.47L68.864,45.429Z" style="fill-rule:nonzero;"/>
        <path d="M62.339,40.354L62.702,40.903L62.408,41.492L61.752,41.532L61.389,40.984L61.681,40.396L62.339,40.354Z" style="fill-rule:nonzero;"/>
        <path d="M65.997,38.179L66.266,38.584L66.05,39.02L65.565,39.049L65.297,38.645L65.514,38.209L65.997,38.179Z" style="fill-rule:nonzero;"/>
        <path d="M62.227,42.701L62.655,43.348L62.309,44.042L61.533,44.09L61.105,43.445L61.45,42.749L62.227,42.701Z" style="fill-rule:nonzero;"/>
        <path d="M65.615,38.764L65.959,39.28L65.683,39.835L65.065,39.874L64.725,39.357L65,38.802L65.615,38.764Z" style="fill-rule:nonzero;"/>
        <path d="M64.98,41.023L65.423,41.689L65.065,42.406L64.267,42.456L63.827,41.788L64.182,41.073L64.98,41.023Z" style="fill-rule:nonzero;"/>
        <path d="M66.248,43.271L66.49,43.638L66.296,44.033L65.855,44.06L65.612,43.693L65.809,43.298L66.248,43.271Z" style="fill-rule:nonzero;"/>
        <path d="M70.548,42.138L70.727,42.408L70.584,42.695L70.259,42.714L70.081,42.447L70.225,42.157L70.548,42.138Z" style="fill-rule:nonzero;"/>
        <path d="M78.36,46.176L78.537,46.447L78.395,46.734L78.07,46.754L77.894,46.487L78.036,46.196L78.36,46.176Z" style="fill-rule:nonzero;"/>
        <path d="M70.899,46.5L70.599,46.409L70.366,46.624L70.438,46.933L70.74,47.025L70.971,46.809L70.899,46.5Z" style="fill-rule:nonzero;"/>
        <path d="M63.434,46.368L63.607,46.632L63.468,46.916L63.151,46.937L62.976,46.672L63.117,46.387L63.434,46.368Z" style="fill-rule:nonzero;"/>
        <path d="M67.992,44.118L68.169,44.379L68.026,44.663L67.713,44.684L67.538,44.419L67.679,44.137L67.992,44.118Z" style="fill-rule:nonzero;"/>
        <path d="M70.135,43.985L70.312,44.247L70.169,44.532L69.853,44.551L69.68,44.286L69.818,44.004L70.135,43.985Z" style="fill-rule:nonzero;"/>
        <path d="M63.409,51.979L63.586,52.239L63.443,52.524L63.127,52.543L62.954,52.28L63.094,51.998L63.409,51.979Z" style="fill-rule:nonzero;"/>
        <path d="M69.166,40.8L69.341,41.062L69.2,41.347L68.885,41.366L68.708,41.102L68.851,40.819L69.166,40.8Z" style="fill-rule:nonzero;"/>
        <path d="M62.479,45.368L62.652,45.629L62.513,45.914L62.196,45.934L62.021,45.669L62.162,45.387L62.479,45.368Z" style="fill-rule:nonzero;"/>
        <path d="M62.186,45.295L62.327,45.509L62.213,45.739L61.956,45.755L61.813,45.542L61.929,45.311L62.186,45.295Z" style="fill-rule:nonzero;"/>
        <path d="M60.694,54.961L60.868,55.224L60.727,55.506L60.41,55.528L60.236,55.262L60.378,54.979L60.694,54.961Z" style="fill-rule:nonzero;"/>
        <path d="M60.399,54.89L60.542,55.104L60.427,55.333L60.171,55.35L60.029,55.133L60.144,54.903L60.399,54.89Z" style="fill-rule:nonzero;"/>
        <path d="M63.026,38.799L63.269,39.165L63.074,39.56L62.633,39.587L62.391,39.22L62.587,38.827L63.026,38.799Z" style="fill-rule:nonzero;"/>
        <path d="M62.558,38.362L62.801,38.729L62.605,39.123L62.166,39.15L61.922,38.784L62.119,38.39L62.558,38.362Z" style="fill-rule:nonzero;"/>
        <path d="M67.52,40.604L67.765,40.97L67.567,41.366L67.129,41.394L66.887,41.023L67.081,40.631L67.52,40.604Z" style="fill-rule:nonzero;"/>
        <path d="M63.007,47.776L63.25,48.144L63.056,48.537L62.614,48.564L62.371,48.199L62.567,47.804L63.007,47.776Z" style="fill-rule:nonzero;"/>
        <path d="M68.925,42.52L69.207,42.942L68.98,43.397L68.473,43.428L68.191,43.005L68.417,42.551L68.925,42.52Z" style="fill-rule:nonzero;"/>
        <path d="M64.495,40.671L64.741,41.039L64.543,41.432L64.105,41.459L63.863,41.093L64.059,40.699L64.495,40.671Z" style="fill-rule:nonzero;"/>
        <path d="M53.763,55.078L54.516,55.506L54.523,56.369L53.776,56.808L53.024,56.38L53.018,55.517L53.763,55.078Z" style="fill-rule:nonzero;"/>
        <path d="M53.272,55.717L53.803,56.021L53.806,56.633L53.276,56.939L52.746,56.638L52.743,56.024L53.272,55.717Z" style="fill-rule:nonzero;"/>
        <path d="M53.775,52.396L54.14,52.943L53.847,53.532L53.19,53.574L52.825,53.025L53.119,52.437L53.775,52.396Z" style="fill-rule:nonzero;"/>
        <path d="M52.086,51.082L52.449,51.631L52.155,52.22L51.499,52.261L51.135,51.713L51.428,51.123L52.086,51.082Z" style="fill-rule:nonzero;"/>
        <path d="M51.669,48.878L52.035,49.428L51.739,50.017L51.085,50.057L50.72,49.509L51.014,48.919L51.669,48.878Z" style="fill-rule:nonzero;"/>
        <path d="M55.329,46.704L55.598,47.109L55.381,47.543L54.897,47.574L54.629,47.169L54.846,46.734L55.329,46.704Z" style="fill-rule:nonzero;"/>
        <path d="M63.954,36.586L64.383,37.234L64.036,37.929L63.264,37.977L62.833,37.331L63.18,36.634L63.954,36.586Z" style="fill-rule:nonzero;"/>
        <path d="M36.873,46.86L37.304,47.508L36.958,48.203L36.183,48.25L35.752,47.604L36.101,46.908L36.873,46.86Z" style="fill-rule:nonzero;"/>
        <path d="M54.948,47.289L55.291,47.805L55.014,48.359L54.397,48.397L54.055,47.882L54.332,47.327L54.948,47.289Z" style="fill-rule:nonzero;"/>
        <path d="M54.313,49.548L54.754,50.214L54.398,50.93L53.6,50.979L53.157,50.313L53.515,49.598L54.313,49.548Z" style="fill-rule:nonzero;"/>
        <path d="M56.019,51.957L56.263,52.327L56.065,52.719L55.627,52.746L55.384,52.382L55.58,51.984L56.019,51.957Z" style="fill-rule:nonzero;"/>
        <path d="M52.828,54.64L53.004,54.903L52.862,55.188L52.548,55.207L52.371,54.944L52.513,54.659L52.828,54.64Z" style="fill-rule:nonzero;"/>
        <path d="M57.326,52.642L57.5,52.905L57.358,53.188L57.044,53.206L56.869,52.943L57.011,52.661L57.326,52.642Z" style="fill-rule:nonzero;"/>
        <path d="M58.527,38.157L58.7,38.42L58.561,38.704L58.245,38.723L58.07,38.458L58.211,38.176L58.527,38.157Z" style="fill-rule:nonzero;"/>
        <path d="M38.117,42.927L38.295,43.191L38.15,43.475L37.838,43.494L37.662,43.231L37.802,42.947L38.117,42.927Z" style="fill-rule:nonzero;"/>
        <path d="M37.824,42.854L37.97,43.071L37.855,43.301L37.597,43.317L37.454,43.104L37.569,42.871L37.824,42.854Z" style="fill-rule:nonzero;"/>
        <path d="M52.358,47.324L52.603,47.69L52.405,48.085L51.967,48.112L51.721,47.745L51.92,47.352L52.358,47.324Z" style="fill-rule:nonzero;"/>
        <path d="M51.891,46.887L52.132,47.254L51.939,47.647L51.498,47.675L51.254,47.309L51.451,46.915L51.891,46.887Z" style="fill-rule:nonzero;"/>
        <path d="M36.725,44.304L36.969,44.671L36.772,45.064L36.333,45.092L36.089,44.726L36.286,44.33L36.725,44.304Z" style="fill-rule:nonzero;"/>
        <path d="M53.829,49.195L54.072,49.563L53.875,49.957L53.437,49.984L53.192,49.618L53.391,49.222L53.829,49.195Z" style="fill-rule:nonzero;"/>
        <path d="M69.639,49.143L69.811,48.296L70.632,48.019L71.281,48.592L71.107,49.44L70.288,49.715L69.639,49.143Z" style="fill-rule:nonzero;"/>
        <path d="M70.469,49.62L70.59,49.02L71.169,48.826L71.627,49.23L71.506,49.828L70.925,50.024L70.469,49.62Z" style="fill-rule:nonzero;"/>
        <path d="M67.032,38.974L67.163,38.328L67.786,38.12L68.28,38.554L68.148,39.198L67.525,39.408L67.032,38.974Z" style="fill-rule:nonzero;"/>
        <path d="M67.434,48.228L67.565,47.581L68.189,47.374L68.681,47.808L68.552,48.452L67.927,48.662L67.434,48.228Z" style="fill-rule:nonzero;"/>
        <path d="M74.537,38.126L74.669,37.482L75.292,37.273L75.784,37.708L75.654,38.354L75.03,38.562L74.537,38.126Z" style="fill-rule:nonzero;"/>
        <path d="M72.012,39L72.107,38.524L72.569,38.371L72.934,38.692L72.838,39.168L72.376,39.321L72.012,39Z" style="fill-rule:nonzero;"/>
        <path d="M70.704,40.56L70.858,39.798L71.594,39.552L72.175,40.065L72.021,40.826L71.284,41.073L70.704,40.56Z" style="fill-rule:nonzero;"/>
        <path d="M65.456,54.514L65.577,53.908L66.164,53.711L66.629,54.119L66.506,54.728L65.919,54.925L65.456,54.514Z" style="fill-rule:nonzero;"/>
        <path d="M67.411,54.122L67.57,53.338L68.33,53.083L68.929,53.615L68.769,54.398L68.011,54.65L67.411,54.122Z" style="fill-rule:nonzero;"/>
        <path d="M68.606,50.43L68.695,49.998L69.112,49.858L69.442,50.15L69.356,50.583L68.939,50.723L68.606,50.43Z" style="fill-rule:nonzero;"/>
        <path d="M74.121,50.33L74.207,49.898L74.626,49.757L74.955,50.048L74.867,50.481L74.451,50.622L74.121,50.33Z" style="fill-rule:nonzero;"/>
        <path d="M64.151,49.573L64.216,49.256L64.522,49.155L64.764,49.369L64.699,49.686L64.393,49.788L64.151,49.573Z" style="fill-rule:nonzero;"/>
        <path d="M58.622,56.101L58.687,55.783L58.992,55.682L59.234,55.896L59.169,56.213L58.863,56.314L58.622,56.101Z" style="fill-rule:nonzero;"/>
        <path d="M72.172,51.188L72.236,50.877L72.537,50.776L72.773,50.986L72.711,51.297L72.41,51.396L72.172,51.188Z" style="fill-rule:nonzero;"/>
        <path d="M67.355,49.981L67.418,49.669L67.72,49.569L67.956,49.779L67.893,50.088L67.594,50.188L67.355,49.981Z" style="fill-rule:nonzero;"/>
        <path d="M65.749,48.561L65.811,48.25L66.112,48.148L66.35,48.357L66.286,48.668L65.986,48.769L65.749,48.561Z" style="fill-rule:nonzero;"/>
        <path d="M68.039,55.821L68.101,55.509L68.402,55.407L68.64,55.618L68.576,55.928L68.277,56.029L68.039,55.821Z" style="fill-rule:nonzero;"/>
        <path d="M64.182,51.496L64.245,51.188L64.546,51.087L64.782,51.296L64.72,51.605L64.42,51.707L64.182,51.496Z" style="fill-rule:nonzero;"/>
        <path d="M69.34,55.788L69.402,55.479L69.703,55.377L69.939,55.585L69.877,55.897L69.577,55.999L69.34,55.788Z" style="fill-rule:nonzero;"/>
        <path d="M80.442,44.108L80.505,43.798L80.806,43.698L81.042,43.907L80.98,44.218L80.68,44.319L80.442,44.108Z" style="fill-rule:nonzero;"/>
        <path d="M80.597,44.366L80.649,44.114L80.892,44.031L81.085,44.203L81.037,44.455L80.79,44.537L80.597,44.366Z" style="fill-rule:nonzero;"/>
        <path d="M65.208,52.798L65.296,52.365L65.711,52.226L66.043,52.519L65.955,52.949L65.537,53.089L65.208,52.798Z" style="fill-rule:nonzero;"/>
        <path d="M78.646,45.665L78.733,45.233L79.151,45.093L79.483,45.385L79.396,45.817L78.976,45.957L78.646,45.665Z" style="fill-rule:nonzero;"/>
        <path d="M65.568,50.452L65.67,49.956L66.152,49.792L66.532,50.129L66.432,50.628L65.951,50.789L65.568,50.452Z" style="fill-rule:nonzero;"/>
        <path d="M67.505,54.714L67.593,54.281L68.009,54.141L68.339,54.435L68.252,54.864L67.834,55.005L67.505,54.714Z" style="fill-rule:nonzero;"/>
        <path d="M56.272,56.559L56.403,55.911L57.025,55.703L57.521,56.139L57.389,56.783L56.766,56.994L56.272,56.559Z" style="fill-rule:nonzero;"/>
        <path d="M31.014,48.745L31.455,48.255L32.096,48.391L32.302,49.017L31.86,49.506L31.216,49.37L31.014,48.745Z" style="fill-rule:nonzero;"/>
        <path d="M57.416,48.07L57.741,47.709L58.215,47.81L58.367,48.272L58.041,48.633L57.567,48.533L57.416,48.07Z" style="fill-rule:nonzero;"/>
        <path d="M70.495,56.706L70.821,56.348L71.295,56.449L71.446,56.909L71.121,57.271L70.647,57.17L70.495,56.706Z" style="fill-rule:nonzero;"/>
        <path d="M61.435,50.083L61.953,49.504L62.713,49.667L62.951,50.405L62.432,50.982L61.673,50.82L61.435,50.083Z" style="fill-rule:nonzero;"/>
        <path d="M56.699,46.379L57.112,45.92L57.718,46.048L57.908,46.636L57.493,47.097L56.89,46.968L56.699,46.379Z" style="fill-rule:nonzero;"/>
        <path d="M58.618,46.568L59.152,45.973L59.935,46.139L60.183,46.901L59.647,47.494L58.864,47.329L58.618,46.568Z" style="fill-rule:nonzero;"/>
        <path d="M53.534,58.041L53.597,57.724L53.904,57.622L54.146,57.836L54.081,58.15L53.776,58.255L53.534,58.041Z" style="fill-rule:nonzero;"/>
        <path d="M58.862,59.299L58.924,58.992L59.224,58.891L59.462,59.099L59.399,59.409L59.098,59.51L58.862,59.299Z" style="fill-rule:nonzero;"/>
        <path d="M57.276,58.989L57.34,58.68L57.639,58.578L57.875,58.789L57.813,59.099L57.514,59.2L57.276,58.989Z" style="fill-rule:nonzero;"/>
        <path d="M56.29,53.503L56.353,53.19L56.651,53.089L56.89,53.3L56.827,53.609L56.527,53.711L56.29,53.503Z" style="fill-rule:nonzero;"/>
        <path d="M54.853,57.619L54.915,57.307L55.214,57.205L55.451,57.416L55.39,57.729L55.088,57.827L54.853,57.619Z" style="fill-rule:nonzero;"/>
        <path d="M57.497,38.792L57.79,38.465L58.221,38.557L58.356,38.976L58.062,39.302L57.633,39.212L57.497,38.792Z" style="fill-rule:nonzero;"/>
        <path d="M56.022,51.035L56.317,50.708L56.747,50.798L56.885,51.219L56.589,51.543L56.158,51.452L56.022,51.035Z" style="fill-rule:nonzero;"/>
        <path d="M41.93,48.636L42.103,47.789L42.922,47.513L43.571,48.086L43.398,48.933L42.576,49.208L41.93,48.636Z" style="fill-rule:nonzero;"/>
        <path d="M42.757,49.113L42.881,48.512L43.459,48.319L43.917,48.724L43.796,49.321L43.215,49.517L42.757,49.113Z" style="fill-rule:nonzero;"/>
        <path d="M39.912,46.717L40.041,46.073L40.666,45.862L41.159,46.299L41.028,46.945L40.405,47.154L39.912,46.717Z" style="fill-rule:nonzero;"/>
        <path d="M47.564,49.647L47.652,49.214L48.071,49.074L48.4,49.365L48.313,49.796L47.897,49.936L47.564,49.647Z" style="fill-rule:nonzero;"/>
        <path d="M37.196,46.29L37.262,45.973L37.566,45.871L37.808,46.084L37.747,46.402L37.438,46.502L37.196,46.29Z" style="fill-rule:nonzero;"/>
        <path d="M45.736,50.239L45.802,49.928L46.101,49.827L46.339,50.038L46.276,50.349L45.975,50.447L45.736,50.239Z" style="fill-rule:nonzero;"/>
        <path d="M39.833,48.471L39.896,48.16L40.197,48.06L40.434,48.269L40.37,48.581L40.071,48.681L39.833,48.471Z" style="fill-rule:nonzero;"/>
        <path d="M38.227,47.05L38.29,46.741L38.592,46.641L38.827,46.849L38.764,47.16L38.465,47.261L38.227,47.05Z" style="fill-rule:nonzero;"/>
        <path d="M43.152,41.414L43.239,40.982L43.659,40.841L43.99,41.133L43.9,41.563L43.483,41.705L43.152,41.414Z" style="fill-rule:nonzero;"/>
        <path d="M25.315,52.212L25.403,51.778L25.819,51.639L26.151,51.932L26.063,52.362L25.647,52.502L25.315,52.212Z" style="fill-rule:nonzero;"/>
        <path d="M38.219,44.996L38.32,44.497L38.803,44.334L39.184,44.671L39.082,45.167L38.6,45.331L38.219,44.996Z" style="fill-rule:nonzero;"/>
        <path d="M49.177,51.535L49.277,51.038L49.76,50.875L50.141,51.212L50.04,51.707L49.558,51.872L49.177,51.535Z" style="fill-rule:nonzero;"/>
        <path d="M17.153,54.398L17.255,53.9L17.737,53.738L18.118,54.075L18.017,54.571L17.534,54.733L17.153,54.398Z" style="fill-rule:nonzero;"/>
        <path d="M39.989,42.047L39.912,42.702L39.307,42.962L38.78,42.569L38.857,41.917L39.46,41.655L39.989,42.047Z" style="fill-rule:nonzero;"/>
        <path d="M57.977,36.848L57.925,37.285L57.521,37.46L57.168,37.197L57.219,36.76L57.622,36.585L57.977,36.848Z" style="fill-rule:nonzero;"/>
        <path d="M42.875,38.369L42.837,38.69L42.538,38.817L42.28,38.625L42.318,38.303L42.614,38.176L42.875,38.369Z" style="fill-rule:nonzero;"/>
        <path d="M45.873,38.632L45.838,38.947L45.547,39.073L45.292,38.883L45.328,38.569L45.618,38.443L45.873,38.632Z" style="fill-rule:nonzero;"/>
        <path d="M58.765,38.621L58.728,38.937L58.438,39.061L58.183,38.872L58.221,38.557L58.51,38.432L58.765,38.621Z" style="fill-rule:nonzero;"/>
        <path d="M74.051,38.484L74.016,38.799L73.724,38.923L73.47,38.735L73.507,38.421L73.796,38.295L74.051,38.484Z" style="fill-rule:nonzero;"/>
        <path d="M61.8,36.844L61.765,37.156L61.473,37.281L61.221,37.095L61.255,36.779L61.547,36.655L61.8,36.844Z" style="fill-rule:nonzero;"/>
        <path d="M45.788,37.251L45.753,37.565L45.462,37.691L45.21,37.501L45.246,37.187L45.536,37.061L45.788,37.251Z" style="fill-rule:nonzero;"/>
        <path d="M45.613,37.005L45.583,37.263L45.345,37.365L45.139,37.211L45.169,36.955L45.407,36.852L45.613,37.005Z" style="fill-rule:nonzero;"/>
        <path d="M68.847,38.67L68.796,39.109L68.39,39.283L68.039,39.02L68.089,38.584L68.493,38.409L68.847,38.67Z" style="fill-rule:nonzero;"/>
        <path d="M44.227,37.614L44.177,38.053L43.769,38.227L43.418,37.965L43.47,37.526L43.875,37.353L44.227,37.614Z" style="fill-rule:nonzero;"/>
        <path d="M60.507,38L60.447,38.506L59.98,38.706L59.572,38.405L59.632,37.897L60.098,37.699L60.507,38Z" style="fill-rule:nonzero;"/>
        <path d="M75.764,39.261L75.784,39.109L75.924,39.046L76.048,39.141L76.031,39.292L75.89,39.353L75.764,39.261Z" style="fill-rule:nonzero;"/>
        <path d="M94.37,38.93L94.2,40.192L93.435,41.781L92.45,43.159L91.243,43.702L89.41,43.244L87.861,44.433L85.091,44.058L80.925,47.111L84.071,43.851L82.79,43.46L83.131,40.515L77.541,42.167L83.182,40.095L83.386,38.386L81.727,38.431L80.56,38.057L79.954,36.623L76.192,36.264L84.239,35.336L83.603,42.874L87.737,43.729L88.839,42.982L87.301,42.524L88.339,40.878L88.265,42.331L91.054,43.034L92.074,42.713L92.615,41.898L91.251,42.058L88.806,41.371L88.847,40.313L89.773,39.999L90.36,39.8L90.964,38.954L90.547,37.992L89.081,37.526L88.194,37.714L89.003,37.241L89.969,36.848L89.085,36.105L87.691,35.631L89.216,35.944L90.198,36.703L91.086,36.516L90.726,35.986L88.405,35.167L85.439,34.771L80.034,35L85.281,34.273L88.423,34.579L91.073,35.394L92.177,37.067L94.37,38.93ZM92.439,39.02L93.677,39.142L91.722,37.588L91.259,36.759L90.738,37.618L91.245,38.468L92.116,39.28L91.555,39.372L91.175,40.367L91.381,41.319L92.235,41.418L92.984,41.344L93.425,40.19L92.439,39.02Z" style="fill-rule:nonzero;"/>
        <path d="M78.514,40.899L78.836,40.366L78.532,39.823L77.912,39.812L77.595,40.345L77.895,40.888L78.514,40.899Z" style="fill-rule:nonzero;"/>
        <path d="M77.636,38.254L77.791,37.998L77.644,37.735L77.347,37.729L77.191,37.987L77.338,38.249L77.636,38.254Z" style="fill-rule:nonzero;"/>
        <path d="M77.157,45.502L77.37,45.144L77.17,44.782L76.753,44.775L76.541,45.13L76.741,45.495L77.157,45.502Z" style="fill-rule:nonzero;"/>
        <path d="M78.399,43.637L78.646,43.226L78.413,42.805L77.933,42.797L77.687,43.209L77.919,43.628L78.399,43.637Z" style="fill-rule:nonzero;"/>
        <path d="M80.434,39.003L80.156,38.896L79.923,39.08L79.967,39.375L80.245,39.486L80.478,39.298L80.434,39.003Z" style="fill-rule:nonzero;"/>
        <path d="M81.547,39.689L81.269,39.581L81.034,39.766L81.079,40.06L81.357,40.17L81.592,39.983L81.547,39.689Z" style="fill-rule:nonzero;"/>
        <path d="M81.671,39.944L81.444,39.854L81.253,40.007L81.29,40.248L81.518,40.337L81.708,40.185L81.671,39.944Z" style="fill-rule:nonzero;"/>
        <path d="M80.701,42.28L80.314,42.128L79.991,42.386L80.052,42.797L80.439,42.949L80.765,42.691L80.701,42.28Z" style="fill-rule:nonzero;"/>
        <path d="M81.621,41.914L81.859,41.722L82.143,41.834L82.189,42.136L81.949,42.325L81.666,42.214L81.621,41.914Z" style="fill-rule:nonzero;"/>
        <path d="M86.182,40.815L86.102,41.214L85.717,41.347L85.411,41.078L85.489,40.678L85.874,40.546L86.182,40.815Z" style="fill-rule:nonzero;"/>
        <path d="M85.812,40.648L85.737,41.018L85.384,41.14L85.099,40.891L85.171,40.522L85.529,40.4L85.812,40.648Z" style="fill-rule:nonzero;"/>
        <path d="M86.158,39.295L86.078,39.693L85.694,39.822L85.391,39.556L85.467,39.158L85.853,39.027L86.158,39.295Z" style="fill-rule:nonzero;"/>
        <path d="M86.768,36.937L86.691,37.334L86.308,37.466L86,37.2L86.08,36.801L86.464,36.671L86.768,36.937Z" style="fill-rule:nonzero;"/>
        <path d="M85.703,37.914L85.609,38.384L85.157,38.539L84.799,38.224L84.891,37.756L85.343,37.6L85.703,37.914Z" style="fill-rule:nonzero;"/>
        <path d="M87.635,38.375L87.541,38.857L87.073,39.016L86.702,38.692L86.798,38.209L87.264,38.051L87.635,38.375Z" style="fill-rule:nonzero;"/>
        <path d="M87.576,38.011L87.524,38.277L87.267,38.364L87.063,38.187L87.116,37.919L87.372,37.832L87.576,38.011Z" style="fill-rule:nonzero;"/>
        <path d="M85.188,36.089L85.24,35.823L85.495,35.735L85.7,35.915L85.648,36.179L85.389,36.267L85.188,36.089Z" style="fill-rule:nonzero;"/>
        <path d="M84.378,40.148L84.423,39.912L84.652,39.835L84.834,39.992L84.787,40.229L84.558,40.308L84.378,40.148Z" style="fill-rule:nonzero;"/>
        <path d="M86.691,40.033L86.737,39.797L86.965,39.719L87.146,39.878L87.1,40.112L86.872,40.192L86.691,40.033Z" style="fill-rule:nonzero;"/>
        <path d="M84.512,42.057L84.542,41.916L84.678,41.869L84.787,41.963L84.76,42.107L84.623,42.154L84.512,42.057Z" style="fill-rule:nonzero;"/>
        <path d="M86.169,41.827L86.196,41.686L86.335,41.639L86.444,41.733L86.414,41.876L86.278,41.924L86.169,41.827Z" style="fill-rule:nonzero;"/>
        <path d="M87.216,36.081L87.246,35.938L87.382,35.89L87.492,35.986L87.464,36.13L87.327,36.177L87.216,36.081Z" style="fill-rule:nonzero;"/>
        <path d="M48.077,38.018L48.112,37.705L48.403,37.579L48.657,37.768L48.62,38.083L48.332,38.208L48.077,38.018Z" style="fill-rule:nonzero;"/>
        <path d="M48.252,38.261L48.282,38.006L48.519,37.905L48.726,38.057L48.697,38.314L48.458,38.416L48.252,38.261Z" style="fill-rule:nonzero;"/>
        <path d="M49.641,37.652L49.69,37.217L50.095,37.041L50.448,37.304L50.396,37.743L49.993,37.917L49.641,37.652Z" style="fill-rule:nonzero;"/>
        <path d="M59.774,36.722L59.257,37.13L58.646,36.888L58.55,36.237L59.067,35.83L59.678,36.072L59.774,36.722Z" style="fill-rule:nonzero;"/>
        <path d="M65.193,38.083L64.946,38.279L64.651,38.164L64.605,37.85L64.854,37.654L65.147,37.77L65.193,38.083Z" style="fill-rule:nonzero;"/>
        <path d="M70.975,39L70.577,39.314L70.105,39.127L70.031,38.624L70.431,38.309L70.901,38.497L70.975,39Z" style="fill-rule:nonzero;"/>
        <path d="M70.109,50.94L74.391,49.425L76.541,47.645L77.789,44.688L76.923,47.89L74.646,49.946L70.237,51.519L67.035,51.713L68.773,52.598L67.828,52.768L65.299,51.314L70.109,50.94Z" style="fill-rule:nonzero;"/>
        <path d="M5.829,46.214L7.437,45.903L8.789,46.481L12.385,50.902L17.014,52.597L20.816,52.205L35.75,44.652L41.347,38.146L41.391,38.095L45.37,36.07L50.045,35.314L50.072,35.31L61.177,35.378L61.214,35.378L71.008,37.651L73.392,36.966L77.791,37.067L73.419,37.522L71.047,38.358L61.134,36.057L50.125,35.989L45.583,36.723L41.817,38.64L36.176,45.197L21.064,52.837L21.009,52.867L16.925,53.289L11.973,51.476L9.715,48.694L9.189,49.919L8.027,50.215L10.666,53.218L16.208,55.448L22.002,54.886L33.938,48.904L33.993,48.874L37.646,48.708L38.934,50.392L42.763,52.176L46.48,52.91L49.403,53.189L50.576,54.003L49.81,51.225L48.264,48.717L42.919,50.846L39.783,48.982L42.897,50.34L48.55,47.98L50.539,51.071L51.719,54.794L51.858,57.727L52.691,58.615L55.637,58.615L61.224,56.332L65.058,56.691L65.557,55.762L63.631,54.386L59.474,54.706L54.446,55.301L55.285,50.184L55.291,50.184L56.022,46.883L56.022,44.174L53.261,39.542L51.219,38.959L45.294,41.015L44.264,40.389L45.291,40.743L51.264,38.501L53.58,39.112L56.642,44.051L56.642,47.018L56.004,50.277L60.288,50.824L60.181,47.724L67.898,43.928L68.489,43.144L68.103,44.051L60.842,48.206L60.995,51.673L66.178,55.37L69.353,57.089L68.587,58.429L65.325,60.11L65.026,61.028L66.126,61.445L70.841,59.433L72.206,58.657L72.737,57.09L67.826,52.765L74.928,51.502L79.18,47.608L82.058,44.685L79.565,47.924L75.211,52.14L69.335,53.187L73.527,56.878L72.767,59.12L71.16,60.032L66.39,62.068L67.07,62.379L71.474,61.83L72.657,63.141L72.657,64.728L70.964,65.372L65.727,65.723L57.142,61.572L55.528,59.297L52.396,59.297L51.19,58.012L51.057,55.164L49.161,53.852L46.396,53.586L42.551,52.826L38.494,50.938L37.341,49.43L34.197,49.535L22.259,55.52L16.104,56.007L10.257,53.782L6.242,49.209L5.631,47.566L5.829,46.214ZM55.85,50.945L55.264,54.525L58.293,54.167L56.943,51.086L55.85,50.945ZM60.332,52.039L60.314,51.516L57.73,51.185L58.999,54.081L59.402,54.034L62.768,53.776L60.332,52.039ZM68.098,57.921L68.42,57.359L66.137,56.126L65.444,57.417L61.328,57.03L60.44,57.392L62.321,60.22L64.289,61.114L64.769,59.639L68.098,57.921ZM57.596,61.039L65.862,65.035L70.819,64.704L71.979,64.263L71.979,63.405L71.209,62.553L66.965,63.078L61.863,60.757L59.798,57.654L56.229,59.112L57.596,61.039Z" style="fill-rule:nonzero;"/>
    </g>
</svg>
