<?xml version="1.0" encoding="UTF-8" standalone="no"?><!DOCTYPE svg PUBLIC "-//W3C//DTD SVG 1.1//EN" "http://www.w3.org/Graphics/SVG/1.1/DTD/svg11.dtd"><svg width="25%" height="25%" viewBox="0 0 100 125" version="1.1" xmlns="http://www.w3.org/2000/svg" xmlns:xlink="http://www.w3.org/1999/xlink" xml:space="preserve" xmlns:serif="http://www.serif.com/" style="fill-rule:evenodd;clip-rule:evenodd;stroke-linejoin:round;stroke-miterlimit:2;"><g><path d="M76.3,41.807l0.385,-0.774l-0.477,-0.721l-0.865,0.054l-0.385,0.774l0.479,0.721l0.863,-0.054Z" style="fill-rule:nonzero;"/><path d="M75.353,41.674l0.272,-0.548l-0.338,-0.509l-0.608,0.036l-0.275,0.549l0.34,0.509l0.609,-0.037Z" style="fill-rule:nonzero;"/><path d="M74.456,43.757l0.294,-0.588l-0.365,-0.548l-0.655,0.04l-0.295,0.589l0.365,0.548l0.656,-0.041Z" style="fill-rule:nonzero;"/><path d="M72.906,47.396l0.292,-0.588l-0.363,-0.55l-0.654,0.041l-0.295,0.59l0.364,0.548l0.656,-0.041Z" style="fill-rule:nonzero;"/><path d="M76.538,49.12l0.218,-0.435l-0.27,-0.406l-0.485,0.031l-0.214,0.435l0.266,0.404l0.485,-0.029Z" style="fill-rule:nonzero;"/><path d="M72.504,45.081l0.347,-0.695l-0.431,-0.645l-0.773,0.048l-0.346,0.693l0.429,0.647l0.774,-0.048Z" style="fill-rule:nonzero;"/><path d="M75.737,48.293l0.278,-0.555l-0.343,-0.516l-0.618,0.038l-0.276,0.555l0.343,0.517l0.616,-0.039Z" style="fill-rule:nonzero;"/><path d="M75.444,46.406l0.358,-0.717l-0.443,-0.666l-0.796,0.05l-0.359,0.715l0.444,0.668l0.796,-0.05Z" style="fill-rule:nonzero;"/><path d="M76.426,44.019l0.197,-0.396l-0.244,-0.366l-0.439,0.028l-0.197,0.393l0.244,0.368l0.439,-0.027Z" style="fill-rule:nonzero;"/><path d="M73.251,41.292l0.141,-0.282l-0.175,-0.266l-0.318,0.021l-0.139,0.284l0.174,0.262l0.317,-0.019Z" style="fill-rule:nonzero;"/><path d="M72.426,42.405l0.14,-0.284l-0.174,-0.263l-0.316,0.019l-0.14,0.284l0.173,0.263l0.317,-0.019Z" style="fill-rule:nonzero;"/><path d="M72.145,42.513l0.115,-0.23l-0.143,-0.217l-0.258,0.017l-0.115,0.231l0.143,0.214l0.258,-0.015Z" style="fill-rule:nonzero;"/><path d="M73.781,48.854l0.196,-0.394l-0.243,-0.368l-0.441,0.027l-0.194,0.396l0.242,0.366l0.44,-0.027Z" style="fill-rule:nonzero;"/><path d="M73.37,49.344l0.197,-0.393l-0.245,-0.366l-0.438,0.027l-0.195,0.394l0.243,0.366l0.438,-0.028Z" style="fill-rule:nonzero;"/><path d="M71.315,41.246l0.197,-0.396l-0.244,-0.367l-0.439,0.028l-0.196,0.393l0.243,0.369l0.439,-0.027Z" style="fill-rule:nonzero;"/><path d="M74.741,46.833l0.198,-0.395l-0.244,-0.368l-0.44,0.028l-0.195,0.395l0.243,0.367l0.438,-0.027Z" style="fill-rule:nonzero;"/><path d="M43.574,40.174l-0.479,-0.722l0.385,-0.775l0.864,-0.053l0.477,0.721l-0.383,0.776l-0.864,0.053Z" style="fill-rule:nonzero;"/><path d="M44.498,39.924l-0.34,-0.509l0.274,-0.548l0.608,-0.039l0.337,0.511l-0.271,0.547l-0.608,0.038Z" style="fill-rule:nonzero;"/><path d="M19.248,54.237l-0.48,-0.723l0.386,-0.774l0.864,-0.054l0.476,0.72l-0.386,0.777l-0.86,0.054Z" style="fill-rule:nonzero;"/><path d="M20.169,53.987l-0.338,-0.509l0.272,-0.548l0.608,-0.038l0.34,0.509l-0.274,0.548l-0.608,0.038Z" style="fill-rule:nonzero;"/><path d="M46.46,42.833l-0.364,-0.547l0.293,-0.59l0.655,-0.041l0.364,0.548l-0.293,0.589l-0.655,0.041Z" style="fill-rule:nonzero;"/><path d="M41.604,41.195l-0.363,-0.55l0.294,-0.588l0.657,-0.041l0.363,0.548l-0.291,0.59l-0.66,0.041Z" style="fill-rule:nonzero;"/><path d="M33.96,48.999l-0.362,-0.55l0.291,-0.588l0.66,-0.041l0.361,0.549l-0.293,0.589l-0.657,0.041Z" style="fill-rule:nonzero;"/><path d="M13.3,52.771l-0.342,-0.51l0.269,-0.551l0.611,-0.041l0.342,0.51l-0.269,0.55l-0.611,0.042Z" style="fill-rule:nonzero;"/><path d="M48.447,46.25l-0.367,-0.548l0.296,-0.588l0.655,-0.041l0.365,0.548l-0.293,0.589l-0.656,0.04Z" style="fill-rule:nonzero;"/><path d="M44.788,48.425l-0.268,-0.404l0.216,-0.435l0.483,-0.03l0.268,0.405l-0.216,0.434l-0.483,0.03Z" style="fill-rule:nonzero;"/><path d="M48.56,43.904l-0.431,-0.647l0.346,-0.695l0.775,-0.048l0.43,0.647l-0.347,0.695l-0.773,0.048Z" style="fill-rule:nonzero;"/><path d="M45.166,47.841l-0.34,-0.517l0.275,-0.552l0.619,-0.038l0.34,0.514l-0.274,0.555l-0.62,0.038Z" style="fill-rule:nonzero;"/><path d="M45.802,45.584l-0.441,-0.666l0.356,-0.719l0.798,-0.05l0.444,0.669l-0.356,0.715l-0.801,0.051Z" style="fill-rule:nonzero;"/><path d="M44.536,43.334l-0.244,-0.367l0.197,-0.395l0.439,-0.028l0.244,0.369l-0.197,0.394l-0.439,0.027Z" style="fill-rule:nonzero;"/><path d="M46.98,37.525l-0.244,-0.366l0.196,-0.396l0.438,-0.026l0.243,0.367l-0.194,0.394l-0.439,0.027Z" style="fill-rule:nonzero;"/><path d="M40.238,44.469l-0.18,-0.269l0.145,-0.291l0.32,-0.019l0.181,0.269l-0.144,0.289l-0.322,0.021Z" style="fill-rule:nonzero;"/><path d="M11.643,52.883l-0.182,-0.269l0.145,-0.29l0.321,-0.019l0.181,0.268l-0.145,0.291l-0.32,0.019Z" style="fill-rule:nonzero;"/><path d="M34.434,47.186l-0.181,-0.269l0.143,-0.288l0.323,-0.023l0.178,0.266l-0.14,0.292l-0.323,0.022Z" style="fill-rule:nonzero;"/><path d="M19.445,52.963l-0.178,-0.269l0.139,-0.291l0.324,-0.021l0.178,0.268l-0.139,0.29l-0.324,0.023Z" style="fill-rule:nonzero;"/><path d="M32.899,48.048l-0.142,-0.213l0.112,-0.229l0.255,-0.016l0.143,0.211l-0.113,0.23l-0.255,0.017Z" style="fill-rule:nonzero;"/><path d="M29.013,50.154l-0.14,-0.212l0.109,-0.228l0.255,-0.018l0.143,0.21l-0.112,0.23l-0.255,0.018Z" style="fill-rule:nonzero;"/><path d="M30.777,49.144l-0.087,-0.134l0.069,-0.148l0.161,-0.011l0.094,0.135l-0.075,0.147l-0.162,0.011Z" style="fill-rule:nonzero;"/><path d="M26.675,51.163l-0.105,-0.159l0.083,-0.173l0.192,-0.014l0.104,0.161l-0.082,0.171l-0.192,0.014Z" style="fill-rule:nonzero;"/><path d="M47.09,50.69l-0.104,-0.158l0.082,-0.173l0.192,-0.013l0.104,0.159l-0.082,0.173l-0.192,0.012Z" style="fill-rule:nonzero;"/><path d="M50.056,47.727l-0.106,-0.157l0.084,-0.173l0.192,-0.014l0.106,0.159l-0.084,0.173l-0.192,0.012Z" style="fill-rule:nonzero;"/><path d="M69.911,58.346l-0.105,-0.159l0.082,-0.173l0.192,-0.014l0.106,0.159l-0.083,0.173l-0.192,0.014Z" style="fill-rule:nonzero;"/><path d="M62.108,55.415l-0.105,-0.158l0.082,-0.173l0.192,-0.014l0.106,0.161l-0.083,0.17l-0.192,0.014Z" style="fill-rule:nonzero;"/><path d="M28.906,50.302l-0.088,-0.134l0.069,-0.147l0.164,-0.011l0.091,0.135l-0.072,0.146l-0.164,0.011Z" style="fill-rule:nonzero;"/><path d="M24.315,51.916l-0.093,-0.135l0.074,-0.147l0.162,-0.012l0.09,0.138l-0.071,0.144l-0.162,0.012Z" style="fill-rule:nonzero;"/><path d="M16.589,52.74l-0.093,-0.134l0.071,-0.148l0.164,-0.011l0.088,0.135l-0.068,0.147l-0.162,0.011Z" style="fill-rule:nonzero;"/><path d="M47.354,39.829l-0.179,-0.264l0.142,-0.283l0.316,-0.019l0.176,0.263l-0.143,0.284l-0.312,0.019Z" style="fill-rule:nonzero;"/><path d="M42.79,42.49l-0.173,-0.265l0.14,-0.282l0.315,-0.021l0.176,0.264l-0.143,0.285l-0.315,0.019Z" style="fill-rule:nonzero;"/><path d="M30.016,50.439l-0.175,-0.264l0.139,-0.283l0.318,-0.019l0.176,0.263l-0.143,0.284l-0.315,0.019Z" style="fill-rule:nonzero;"/><path d="M48.879,36.869l-0.172,-0.265l0.14,-0.282l0.316,-0.021l0.174,0.263l-0.142,0.286l-0.316,0.019Z" style="fill-rule:nonzero;"/><path d="M40.649,42.623l-0.174,-0.265l0.139,-0.283l0.318,-0.02l0.175,0.263l-0.142,0.286l-0.316,0.019Z" style="fill-rule:nonzero;"/><path d="M21.577,54.404l-0.176,-0.265l0.141,-0.283l0.317,-0.019l0.176,0.263l-0.142,0.282l-0.316,0.022Z" style="fill-rule:nonzero;"/><path d="M41.62,45.807l-0.176,-0.264l0.14,-0.282l0.318,-0.021l0.173,0.264l-0.14,0.284l-0.315,0.019Z" style="fill-rule:nonzero;"/><path d="M48.315,51.158l-0.175,-0.264l0.142,-0.284l0.317,-0.019l0.172,0.263l-0.138,0.286l-0.318,0.018Z" style="fill-rule:nonzero;"/><path d="M48.308,41.24l-0.176,-0.266l0.14,-0.282l0.318,-0.019l0.173,0.262l-0.141,0.284l-0.314,0.021Z" style="fill-rule:nonzero;"/><path d="M48.599,41.311l-0.144,-0.215l0.115,-0.23l0.258,-0.016l0.142,0.213l-0.114,0.233l-0.257,0.015Z" style="fill-rule:nonzero;"/><path d="M47.759,47.805l-0.246,-0.367l0.199,-0.393l0.439,-0.026l0.244,0.364l-0.198,0.396l-0.438,0.026Z" style="fill-rule:nonzero;"/><path d="M48.225,48.244l-0.242,-0.368l0.196,-0.394l0.44,-0.027l0.242,0.367l-0.194,0.394l-0.442,0.028Z" style="fill-rule:nonzero;"/><path d="M43.262,46l-0.241,-0.365l0.194,-0.396l0.441,-0.027l0.241,0.369l-0.194,0.392l-0.441,0.027Z" style="fill-rule:nonzero;"/><path d="M27.939,51.385l-0.242,-0.366l0.195,-0.396l0.441,-0.028l0.241,0.369l-0.194,0.393l-0.441,0.028Z" style="fill-rule:nonzero;"/><path d="M49.266,40.086l-0.244,-0.366l0.196,-0.396l0.438,-0.026l0.245,0.368l-0.199,0.393l-0.436,0.027Z" style="fill-rule:nonzero;"/><path d="M41.861,44.087l-0.282,-0.424l0.228,-0.454l0.506,-0.031l0.28,0.422l-0.228,0.456l-0.504,0.031Z" style="fill-rule:nonzero;"/><path d="M10.074,51.444l-0.282,-0.423l0.228,-0.455l0.504,-0.031l0.283,0.422l-0.228,0.457l-0.505,0.03Z" style="fill-rule:nonzero;"/><path d="M13.75,54.5l-0.181,-0.269l0.148,-0.29l0.318,-0.019l0.181,0.268l-0.146,0.29l-0.32,0.02Z" style="fill-rule:nonzero;"/><path d="M15.372,54.119l-0.282,-0.425l0.227,-0.455l0.507,-0.03l0.282,0.422l-0.227,0.458l-0.507,0.03Z" style="fill-rule:nonzero;"/><path d="M46.287,45.934l-0.241,-0.365l0.194,-0.396l0.439,-0.026l0.244,0.367l-0.197,0.393l-0.439,0.027Z" style="fill-rule:nonzero;"/><path d="M22.901,53.505l-0.438,-0.666l0.353,-0.718l0.8,-0.052l0.442,0.669l-0.357,0.718l-0.8,0.049Z" style="fill-rule:nonzero;"/><path d="M23.386,53.856l-0.241,-0.367l0.195,-0.395l0.438,-0.028l0.246,0.368l-0.2,0.395l-0.438,0.027Z" style="fill-rule:nonzero;"/><path d="M56.118,44.249l0.476,0.721l-0.384,0.774l-0.864,0.054l-0.477,-0.721l0.385,-0.774l0.864,-0.054Z" style="fill-rule:nonzero;"/><path d="M55.195,44.499l0.338,0.509l-0.272,0.546l-0.612,0.038l-0.336,-0.508l0.272,-0.547l0.61,-0.038Z" style="fill-rule:nonzero;"/><path d="M54.048,42.542l0.363,0.548l-0.293,0.588l-0.656,0.041l-0.365,-0.548l0.294,-0.589l0.657,-0.04Z" style="fill-rule:nonzero;"/><path d="M58.9,44.178l0.365,0.548l-0.293,0.591l-0.657,0.039l-0.364,-0.547l0.293,-0.59l0.656,-0.041Z" style="fill-rule:nonzero;"/><path d="M52.059,39.123l0.365,0.546l-0.294,0.591l-0.657,0.041l-0.362,-0.549l0.292,-0.589l0.656,-0.04Z" style="fill-rule:nonzero;"/><path d="M55.719,36.947l0.268,0.406l-0.216,0.434l-0.484,0.03l-0.267,-0.406l0.214,-0.434l0.485,-0.03Z" style="fill-rule:nonzero;"/><path d="M51.639,42.017l0.43,0.647l-0.346,0.694l-0.775,0.048l-0.428,-0.646l0.344,-0.695l0.775,-0.048Z" style="fill-rule:nonzero;"/><path d="M55.338,37.532l0.344,0.515l-0.278,0.555l-0.616,0.039l-0.344,-0.517l0.277,-0.554l0.617,-0.038Z" style="fill-rule:nonzero;"/><path d="M55.501,39.792l0.44,0.666l-0.355,0.715l-0.798,0.051l-0.442,-0.666l0.355,-0.717l0.8,-0.049Z" style="fill-rule:nonzero;"/><path d="M55.971,42.039l0.242,0.369l-0.194,0.391l-0.442,0.028l-0.242,-0.366l0.195,-0.395l0.441,-0.027Z" style="fill-rule:nonzero;"/><path d="M60.27,40.906l0.179,0.267l-0.145,0.29l-0.323,0.021l-0.177,-0.272l0.143,-0.286l0.323,-0.02Z" style="fill-rule:nonzero;"/><path d="M53.156,45.136l0.174,0.264l-0.14,0.283l-0.316,0.019l-0.177,-0.264l0.142,-0.283l0.317,-0.019Z" style="fill-rule:nonzero;"/><path d="M57.715,42.884l0.177,0.263l-0.143,0.286l-0.316,0.019l-0.173,-0.265l0.138,-0.283l0.317,-0.02Z" style="fill-rule:nonzero;"/><path d="M59.856,42.751l0.176,0.265l-0.141,0.284l-0.317,0.019l-0.174,-0.265l0.14,-0.282l0.316,-0.021Z" style="fill-rule:nonzero;"/><path d="M61.045,45.636l0.177,0.264l-0.143,0.284l-0.315,0.019l-0.175,-0.264l0.141,-0.284l0.315,-0.019Z" style="fill-rule:nonzero;"/><path d="M58.887,39.567l0.174,0.263l-0.14,0.285l-0.316,0.019l-0.174,-0.264l0.14,-0.284l0.316,-0.019Z" style="fill-rule:nonzero;"/><path d="M52.201,44.134l0.172,0.264l-0.138,0.284l-0.317,0.02l-0.177,-0.265l0.143,-0.282l0.317,-0.021Z" style="fill-rule:nonzero;"/><path d="M51.907,44.063l0.142,0.214l-0.114,0.231l-0.259,0.015l-0.141,-0.215l0.113,-0.23l0.259,-0.015Z" style="fill-rule:nonzero;"/><path d="M52.747,37.566l0.244,0.369l-0.197,0.392l-0.439,0.027l-0.242,-0.366l0.196,-0.395l0.438,-0.027Z" style="fill-rule:nonzero;"/><path d="M52.28,37.13l0.242,0.368l-0.195,0.393l-0.438,0.027l-0.244,-0.366l0.195,-0.394l0.44,-0.028Z" style="fill-rule:nonzero;"/><path d="M57.242,39.372l0.245,0.366l-0.197,0.395l-0.438,0.027l-0.245,-0.367l0.197,-0.395l0.438,-0.026Z" style="fill-rule:nonzero;"/><path d="M51.24,45.422l0.245,0.366l-0.198,0.396l-0.438,0.026l-0.244,-0.367l0.197,-0.393l0.438,-0.028Z" style="fill-rule:nonzero;"/><path d="M58.646,41.285l0.282,0.425l-0.228,0.455l-0.507,0.031l-0.282,-0.423l0.228,-0.456l0.507,-0.032Z" style="fill-rule:nonzero;"/><path d="M53.218,40.738l0.282,0.425l-0.228,0.457l-0.506,0.031l-0.283,-0.425l0.228,-0.456l0.507,-0.032Z" style="fill-rule:nonzero;"/><path d="M55.017,39.438l0.244,0.369l-0.198,0.393l-0.438,0.027l-0.244,-0.367l0.197,-0.395l0.439,-0.027Z" style="fill-rule:nonzero;"/><path d="M53.939,35.909l0.442,0.668l-0.355,0.715l-0.798,0.049l-0.442,-0.666l0.357,-0.717l0.796,-0.049Z" style="fill-rule:nonzero;"/><path d="M53.456,35.693l0.245,0.367l-0.197,0.395l-0.439,0.027l-0.244,-0.367l0.197,-0.395l0.438,-0.027Z" style="fill-rule:nonzero;"/><path d="M66.397,45.48l0.476,0.722l-0.385,0.774l-0.863,0.054l-0.478,-0.721l0.384,-0.776l0.866,-0.053Z" style="fill-rule:nonzero;"/><path d="M65.473,45.73l0.338,0.51l-0.273,0.549l-0.611,0.037l-0.335,-0.51l0.27,-0.548l0.611,-0.038Z" style="fill-rule:nonzero;"/><path d="M64.325,43.772l0.364,0.55l-0.292,0.589l-0.658,0.041l-0.363,-0.548l0.292,-0.591l0.657,-0.041Z" style="fill-rule:nonzero;"/><path d="M68.864,45.429l0.364,0.55l-0.294,0.589l-0.657,0.039l-0.363,-0.547l0.294,-0.59l0.656,-0.041Z" style="fill-rule:nonzero;"/><path d="M62.339,40.354l0.363,0.549l-0.294,0.589l-0.656,0.04l-0.363,-0.548l0.292,-0.588l0.658,-0.042Z" style="fill-rule:nonzero;"/><path d="M65.997,38.179l0.269,0.405l-0.216,0.436l-0.485,0.029l-0.268,-0.404l0.217,-0.436l0.483,-0.03Z" style="fill-rule:nonzero;"/><path d="M62.227,42.701l0.428,0.647l-0.346,0.694l-0.776,0.048l-0.428,-0.645l0.345,-0.696l0.777,-0.048Z" style="fill-rule:nonzero;"/><path d="M65.615,38.764l0.344,0.516l-0.276,0.555l-0.618,0.039l-0.34,-0.517l0.275,-0.555l0.615,-0.038Z" style="fill-rule:nonzero;"/><path d="M64.98,41.023l0.443,0.666l-0.358,0.717l-0.798,0.05l-0.44,-0.668l0.355,-0.715l0.798,-0.05Z" style="fill-rule:nonzero;"/><path d="M66.248,43.271l0.242,0.367l-0.194,0.395l-0.441,0.027l-0.243,-0.367l0.197,-0.395l0.439,-0.027Z" style="fill-rule:nonzero;"/><path d="M70.548,42.138l0.179,0.27l-0.143,0.287l-0.325,0.019l-0.178,-0.267l0.144,-0.29l0.323,-0.019Z" style="fill-rule:nonzero;"/><path d="M78.36,46.176l0.177,0.271l-0.142,0.287l-0.325,0.02l-0.176,-0.267l0.142,-0.291l0.324,-0.02Z" style="fill-rule:nonzero;"/><path d="M70.899,46.5l-0.3,-0.091l-0.233,0.215l0.072,0.309l0.302,0.092l0.231,-0.216l-0.072,-0.309Z" style="fill-rule:nonzero;"/><path d="M63.434,46.368l0.173,0.264l-0.139,0.284l-0.317,0.021l-0.175,-0.265l0.141,-0.285l0.317,-0.019Z" style="fill-rule:nonzero;"/><path d="M67.992,44.118l0.177,0.261l-0.143,0.284l-0.313,0.021l-0.175,-0.265l0.141,-0.282l0.313,-0.019Z" style="fill-rule:nonzero;"/><path d="M70.135,43.985l0.177,0.262l-0.143,0.285l-0.316,0.019l-0.173,-0.265l0.138,-0.282l0.317,-0.019Z" style="fill-rule:nonzero;"/><path d="M63.409,51.979l0.177,0.26l-0.143,0.285l-0.316,0.019l-0.173,-0.263l0.14,-0.282l0.315,-0.019Z" style="fill-rule:nonzero;"/><path d="M69.166,40.8l0.175,0.262l-0.141,0.285l-0.315,0.019l-0.177,-0.264l0.143,-0.283l0.315,-0.019Z" style="fill-rule:nonzero;"/><path d="M62.479,45.368l0.173,0.261l-0.139,0.285l-0.317,0.02l-0.175,-0.265l0.141,-0.282l0.317,-0.019Z" style="fill-rule:nonzero;"/><path d="M62.186,45.295l0.141,0.214l-0.114,0.23l-0.257,0.016l-0.143,-0.213l0.116,-0.231l0.257,-0.016Z" style="fill-rule:nonzero;"/><path d="M60.694,54.961l0.174,0.263l-0.141,0.282l-0.317,0.022l-0.174,-0.266l0.142,-0.283l0.316,-0.018Z" style="fill-rule:nonzero;"/><path d="M60.399,54.89l0.143,0.214l-0.115,0.229l-0.256,0.017l-0.142,-0.217l0.115,-0.23l0.255,-0.013Z" style="fill-rule:nonzero;"/><path d="M63.026,38.799l0.243,0.366l-0.195,0.395l-0.441,0.027l-0.242,-0.367l0.196,-0.393l0.439,-0.028Z" style="fill-rule:nonzero;"/><path d="M62.558,38.362l0.243,0.367l-0.196,0.394l-0.439,0.027l-0.244,-0.366l0.197,-0.394l0.439,-0.028Z" style="fill-rule:nonzero;"/><path d="M67.52,40.604l0.245,0.366l-0.198,0.396l-0.438,0.028l-0.242,-0.371l0.194,-0.392l0.439,-0.027Z" style="fill-rule:nonzero;"/><path d="M63.007,47.776l0.243,0.368l-0.194,0.393l-0.442,0.027l-0.243,-0.365l0.196,-0.395l0.44,-0.028Z" style="fill-rule:nonzero;"/><path d="M68.925,42.52l0.282,0.422l-0.227,0.455l-0.507,0.031l-0.282,-0.423l0.226,-0.454l0.508,-0.031Z" style="fill-rule:nonzero;"/><path d="M64.495,40.671l0.246,0.368l-0.198,0.393l-0.438,0.027l-0.242,-0.366l0.196,-0.394l0.436,-0.028Z" style="fill-rule:nonzero;"/><path d="M53.763,55.078l0.753,0.428l0.007,0.863l-0.747,0.439l-0.752,-0.428l-0.006,-0.863l0.745,-0.439Z" style="fill-rule:nonzero;"/><path d="M53.272,55.717l0.531,0.304l0.003,0.612l-0.53,0.306l-0.53,-0.301l-0.003,-0.614l0.529,-0.307Z" style="fill-rule:nonzero;"/><path d="M53.775,52.396l0.365,0.547l-0.293,0.589l-0.657,0.042l-0.365,-0.549l0.294,-0.588l0.656,-0.041Z" style="fill-rule:nonzero;"/><path d="M52.086,51.082l0.363,0.549l-0.294,0.589l-0.656,0.041l-0.364,-0.548l0.293,-0.59l0.658,-0.041Z" style="fill-rule:nonzero;"/><path d="M51.669,48.878l0.366,0.55l-0.296,0.589l-0.654,0.04l-0.365,-0.548l0.294,-0.59l0.655,-0.041Z" style="fill-rule:nonzero;"/><path d="M55.329,46.704l0.269,0.405l-0.217,0.434l-0.484,0.031l-0.268,-0.405l0.217,-0.435l0.483,-0.03Z" style="fill-rule:nonzero;"/><path d="M63.954,36.586l0.429,0.648l-0.347,0.695l-0.772,0.048l-0.431,-0.646l0.347,-0.697l0.774,-0.048Z" style="fill-rule:nonzero;"/><path d="M36.873,46.86l0.431,0.648l-0.346,0.695l-0.775,0.047l-0.431,-0.646l0.349,-0.696l0.772,-0.048Z" style="fill-rule:nonzero;"/><path d="M54.948,47.289l0.343,0.516l-0.277,0.554l-0.617,0.038l-0.342,-0.515l0.277,-0.555l0.616,-0.038Z" style="fill-rule:nonzero;"/><path d="M54.313,49.548l0.441,0.666l-0.356,0.716l-0.798,0.049l-0.443,-0.666l0.358,-0.715l0.798,-0.05Z" style="fill-rule:nonzero;"/><path d="M56.019,51.957l0.244,0.37l-0.198,0.392l-0.438,0.027l-0.243,-0.364l0.196,-0.398l0.439,-0.027Z" style="fill-rule:nonzero;"/><path d="M52.828,54.64l0.176,0.263l-0.142,0.285l-0.314,0.019l-0.177,-0.263l0.142,-0.285l0.315,-0.019Z" style="fill-rule:nonzero;"/><path d="M57.326,52.642l0.174,0.263l-0.142,0.283l-0.314,0.018l-0.175,-0.263l0.142,-0.282l0.315,-0.019Z" style="fill-rule:nonzero;"/><path d="M58.527,38.157l0.173,0.263l-0.139,0.284l-0.316,0.019l-0.175,-0.265l0.141,-0.282l0.316,-0.019Z" style="fill-rule:nonzero;"/><path d="M38.117,42.927l0.178,0.264l-0.145,0.284l-0.312,0.019l-0.176,-0.263l0.14,-0.284l0.315,-0.02Z" style="fill-rule:nonzero;"/><path d="M37.824,42.854l0.146,0.217l-0.115,0.23l-0.258,0.016l-0.143,-0.213l0.115,-0.233l0.255,-0.017Z" style="fill-rule:nonzero;"/><path d="M52.358,47.324l0.245,0.366l-0.198,0.395l-0.438,0.027l-0.246,-0.367l0.199,-0.393l0.438,-0.028Z" style="fill-rule:nonzero;"/><path d="M51.891,46.887l0.241,0.367l-0.193,0.393l-0.441,0.028l-0.244,-0.366l0.197,-0.394l0.44,-0.028Z" style="fill-rule:nonzero;"/><path d="M36.725,44.304l0.244,0.367l-0.197,0.393l-0.439,0.028l-0.244,-0.366l0.197,-0.396l0.439,-0.026Z" style="fill-rule:nonzero;"/><path d="M53.829,49.195l0.243,0.368l-0.197,0.394l-0.438,0.027l-0.245,-0.366l0.199,-0.396l0.438,-0.027Z" style="fill-rule:nonzero;"/><path d="M69.639,49.143l0.172,-0.847l0.821,-0.277l0.649,0.573l-0.174,0.848l-0.819,0.275l-0.649,-0.572Z" style="fill-rule:nonzero;"/><path d="M70.469,49.62l0.121,-0.6l0.579,-0.194l0.458,0.404l-0.121,0.598l-0.581,0.196l-0.456,-0.404Z" style="fill-rule:nonzero;"/><path d="M67.032,38.974l0.131,-0.646l0.623,-0.208l0.494,0.434l-0.132,0.644l-0.623,0.21l-0.493,-0.434Z" style="fill-rule:nonzero;"/><path d="M67.434,48.228l0.131,-0.647l0.624,-0.207l0.492,0.434l-0.129,0.644l-0.625,0.21l-0.493,-0.434Z" style="fill-rule:nonzero;"/><path d="M74.537,38.126l0.132,-0.644l0.623,-0.209l0.492,0.435l-0.13,0.646l-0.624,0.208l-0.493,-0.436Z" style="fill-rule:nonzero;"/><path d="M72.012,39l0.095,-0.476l0.462,-0.153l0.365,0.321l-0.096,0.476l-0.462,0.153l-0.364,-0.321Z" style="fill-rule:nonzero;"/><path d="M70.704,40.56l0.154,-0.762l0.736,-0.246l0.581,0.513l-0.154,0.761l-0.737,0.247l-0.58,-0.513Z" style="fill-rule:nonzero;"/><path d="M65.456,54.514l0.121,-0.606l0.587,-0.197l0.465,0.408l-0.123,0.609l-0.587,0.197l-0.463,-0.411Z" style="fill-rule:nonzero;"/><path d="M67.411,54.122l0.159,-0.784l0.76,-0.255l0.599,0.532l-0.16,0.783l-0.758,0.252l-0.6,-0.528Z" style="fill-rule:nonzero;"/><path d="M68.606,50.43l0.089,-0.432l0.417,-0.14l0.33,0.292l-0.086,0.433l-0.417,0.14l-0.333,-0.293Z" style="fill-rule:nonzero;"/><path d="M74.121,50.33l0.086,-0.432l0.419,-0.141l0.329,0.291l-0.088,0.433l-0.416,0.141l-0.33,-0.292Z" style="fill-rule:nonzero;"/><path d="M64.151,49.573l0.065,-0.317l0.306,-0.101l0.242,0.214l-0.065,0.317l-0.306,0.102l-0.242,-0.215Z" style="fill-rule:nonzero;"/><path d="M58.622,56.101l0.065,-0.318l0.305,-0.101l0.242,0.214l-0.065,0.317l-0.306,0.101l-0.241,-0.213Z" style="fill-rule:nonzero;"/><path d="M72.172,51.188l0.064,-0.311l0.301,-0.101l0.236,0.21l-0.062,0.311l-0.301,0.099l-0.238,-0.208Z" style="fill-rule:nonzero;"/><path d="M67.355,49.981l0.063,-0.312l0.302,-0.1l0.236,0.21l-0.063,0.309l-0.299,0.1l-0.239,-0.207Z" style="fill-rule:nonzero;"/><path d="M65.749,48.561l0.062,-0.311l0.301,-0.102l0.238,0.209l-0.064,0.311l-0.3,0.101l-0.237,-0.208Z" style="fill-rule:nonzero;"/><path d="M68.039,55.821l0.062,-0.312l0.301,-0.102l0.238,0.211l-0.064,0.31l-0.299,0.101l-0.238,-0.208Z" style="fill-rule:nonzero;"/><path d="M64.182,51.496l0.063,-0.308l0.301,-0.101l0.236,0.209l-0.062,0.309l-0.3,0.102l-0.238,-0.211Z" style="fill-rule:nonzero;"/><path d="M69.34,55.788l0.062,-0.309l0.301,-0.102l0.236,0.208l-0.062,0.312l-0.3,0.102l-0.237,-0.211Z" style="fill-rule:nonzero;"/><path d="M80.442,44.108l0.063,-0.31l0.301,-0.1l0.236,0.209l-0.062,0.311l-0.3,0.101l-0.238,-0.211Z" style="fill-rule:nonzero;"/><path d="M80.597,44.366l0.052,-0.252l0.243,-0.083l0.193,0.172l-0.048,0.252l-0.247,0.082l-0.193,-0.171Z" style="fill-rule:nonzero;"/><path d="M65.208,52.798l0.088,-0.433l0.415,-0.139l0.332,0.293l-0.088,0.43l-0.418,0.14l-0.329,-0.291Z" style="fill-rule:nonzero;"/><path d="M78.646,45.665l0.087,-0.432l0.418,-0.14l0.332,0.292l-0.087,0.432l-0.42,0.14l-0.33,-0.292Z" style="fill-rule:nonzero;"/><path d="M65.568,50.452l0.102,-0.496l0.482,-0.164l0.38,0.337l-0.1,0.499l-0.481,0.161l-0.383,-0.337Z" style="fill-rule:nonzero;"/><path d="M67.505,54.714l0.088,-0.433l0.416,-0.14l0.33,0.294l-0.087,0.429l-0.418,0.141l-0.329,-0.291Z" style="fill-rule:nonzero;"/><path d="M56.272,56.559l0.131,-0.648l0.622,-0.208l0.496,0.436l-0.132,0.644l-0.623,0.211l-0.494,-0.435Z" style="fill-rule:nonzero;"/><path d="M31.014,48.745l0.441,-0.49l0.641,0.136l0.206,0.626l-0.442,0.489l-0.644,-0.136l-0.202,-0.625Z" style="fill-rule:nonzero;"/><path d="M57.416,48.07l0.325,-0.361l0.474,0.101l0.152,0.462l-0.326,0.361l-0.474,-0.1l-0.151,-0.463Z" style="fill-rule:nonzero;"/><path d="M70.495,56.706l0.326,-0.358l0.474,0.101l0.151,0.46l-0.325,0.362l-0.474,-0.101l-0.152,-0.464Z" style="fill-rule:nonzero;"/><path d="M61.435,50.083l0.518,-0.579l0.76,0.163l0.238,0.738l-0.519,0.577l-0.759,-0.162l-0.238,-0.737Z" style="fill-rule:nonzero;"/><path d="M56.699,46.379l0.413,-0.459l0.606,0.128l0.19,0.588l-0.415,0.461l-0.603,-0.129l-0.191,-0.589Z" style="fill-rule:nonzero;"/><path d="M58.618,46.568l0.534,-0.595l0.783,0.166l0.248,0.762l-0.536,0.593l-0.783,-0.165l-0.246,-0.761Z" style="fill-rule:nonzero;"/><path d="M53.534,58.041l0.063,-0.317l0.307,-0.102l0.242,0.214l-0.065,0.314l-0.305,0.105l-0.242,-0.214Z" style="fill-rule:nonzero;"/><path d="M58.862,59.299l0.062,-0.307l0.3,-0.101l0.238,0.208l-0.063,0.31l-0.301,0.101l-0.236,-0.211Z" style="fill-rule:nonzero;"/><path d="M57.276,58.989l0.064,-0.309l0.299,-0.102l0.236,0.211l-0.062,0.31l-0.299,0.101l-0.238,-0.211Z" style="fill-rule:nonzero;"/><path d="M56.29,53.503l0.063,-0.313l0.298,-0.101l0.239,0.211l-0.063,0.309l-0.3,0.102l-0.237,-0.208Z" style="fill-rule:nonzero;"/><path d="M54.853,57.619l0.062,-0.312l0.299,-0.102l0.237,0.211l-0.061,0.313l-0.302,0.098l-0.235,-0.208Z" style="fill-rule:nonzero;"/><path d="M57.497,38.792l0.293,-0.327l0.431,0.092l0.135,0.419l-0.294,0.326l-0.429,-0.09l-0.136,-0.42Z" style="fill-rule:nonzero;"/><path d="M56.022,51.035l0.295,-0.327l0.43,0.09l0.138,0.421l-0.296,0.324l-0.431,-0.091l-0.136,-0.417Z" style="fill-rule:nonzero;"/><path d="M41.93,48.636l0.173,-0.847l0.819,-0.276l0.649,0.573l-0.173,0.847l-0.822,0.275l-0.646,-0.572Z" style="fill-rule:nonzero;"/><path d="M42.757,49.113l0.124,-0.601l0.578,-0.193l0.458,0.405l-0.121,0.597l-0.581,0.196l-0.458,-0.404Z" style="fill-rule:nonzero;"/><path d="M39.912,46.717l0.129,-0.644l0.625,-0.211l0.493,0.437l-0.131,0.646l-0.623,0.209l-0.493,-0.437Z" style="fill-rule:nonzero;"/><path d="M47.564,49.647l0.088,-0.433l0.419,-0.14l0.329,0.291l-0.087,0.431l-0.416,0.14l-0.333,-0.289Z" style="fill-rule:nonzero;"/><path d="M37.196,46.29l0.066,-0.317l0.304,-0.102l0.242,0.213l-0.061,0.318l-0.309,0.1l-0.242,-0.212Z" style="fill-rule:nonzero;"/><path d="M45.736,50.239l0.066,-0.311l0.299,-0.101l0.238,0.211l-0.063,0.311l-0.301,0.098l-0.239,-0.208Z" style="fill-rule:nonzero;"/><path d="M39.833,48.471l0.063,-0.311l0.301,-0.1l0.237,0.209l-0.064,0.312l-0.299,0.1l-0.238,-0.21Z" style="fill-rule:nonzero;"/><path d="M38.227,47.05l0.063,-0.309l0.302,-0.1l0.235,0.208l-0.063,0.311l-0.299,0.101l-0.238,-0.211Z" style="fill-rule:nonzero;"/><path d="M43.152,41.414l0.087,-0.432l0.42,-0.141l0.331,0.292l-0.09,0.43l-0.417,0.142l-0.331,-0.291Z" style="fill-rule:nonzero;"/><path d="M25.315,52.212l0.088,-0.434l0.416,-0.139l0.332,0.293l-0.088,0.43l-0.416,0.14l-0.332,-0.29Z" style="fill-rule:nonzero;"/><path d="M38.219,44.996l0.101,-0.499l0.483,-0.163l0.381,0.337l-0.102,0.496l-0.482,0.164l-0.381,-0.335Z" style="fill-rule:nonzero;"/><path d="M49.177,51.535l0.1,-0.497l0.483,-0.163l0.381,0.337l-0.101,0.495l-0.482,0.165l-0.381,-0.337Z" style="fill-rule:nonzero;"/><path d="M17.153,54.398l0.102,-0.498l0.482,-0.162l0.381,0.337l-0.101,0.496l-0.483,0.162l-0.381,-0.335Z" style="fill-rule:nonzero;"/><path d="M39.989,42.047l-0.077,0.655l-0.605,0.26l-0.527,-0.393l0.077,-0.652l0.603,-0.262l0.529,0.392Z" style="fill-rule:nonzero;"/><path d="M57.977,36.848l-0.052,0.437l-0.404,0.175l-0.353,-0.263l0.051,-0.437l0.403,-0.175l0.355,0.263Z" style="fill-rule:nonzero;"/><path d="M42.875,38.369l-0.038,0.321l-0.299,0.127l-0.258,-0.192l0.038,-0.322l0.296,-0.127l0.261,0.193Z" style="fill-rule:nonzero;"/><path d="M45.873,38.632l-0.035,0.315l-0.291,0.126l-0.255,-0.19l0.036,-0.314l0.29,-0.126l0.255,0.189Z" style="fill-rule:nonzero;"/><path d="M58.765,38.621l-0.037,0.316l-0.29,0.124l-0.255,-0.189l0.038,-0.315l0.289,-0.125l0.255,0.189Z" style="fill-rule:nonzero;"/><path d="M74.051,38.484l-0.035,0.315l-0.292,0.124l-0.254,-0.188l0.037,-0.314l0.289,-0.126l0.255,0.189Z" style="fill-rule:nonzero;"/><path d="M61.8,36.844l-0.035,0.312l-0.292,0.125l-0.252,-0.186l0.034,-0.316l0.292,-0.124l0.253,0.189Z" style="fill-rule:nonzero;"/><path d="M45.788,37.251l-0.035,0.314l-0.291,0.126l-0.252,-0.19l0.036,-0.314l0.29,-0.126l0.252,0.19Z" style="fill-rule:nonzero;"/><path d="M45.613,37.005l-0.03,0.258l-0.238,0.102l-0.206,-0.154l0.03,-0.256l0.238,-0.103l0.206,0.153Z" style="fill-rule:nonzero;"/><path d="M68.847,38.67l-0.051,0.439l-0.406,0.174l-0.351,-0.263l0.05,-0.436l0.404,-0.175l0.354,0.261Z" style="fill-rule:nonzero;"/><path d="M44.227,37.614l-0.05,0.439l-0.408,0.174l-0.351,-0.262l0.052,-0.439l0.405,-0.173l0.352,0.261Z" style="fill-rule:nonzero;"/><path d="M60.507,38l-0.06,0.506l-0.467,0.2l-0.408,-0.301l0.06,-0.508l0.466,-0.198l0.409,0.301Z" style="fill-rule:nonzero;"/><path d="M75.764,39.261l0.02,-0.152l0.14,-0.063l0.124,0.095l-0.017,0.151l-0.141,0.061l-0.126,-0.092Z" style="fill-rule:nonzero;"/><path d="M94.37,38.93l-0.17,1.262l-0.765,1.589l-0.985,1.378l-1.207,0.543l-1.833,-0.458l-1.549,1.189l-2.77,-0.375l-4.166,3.053l3.146,-3.26l-1.281,-0.391l0.341,-2.945l-5.59,1.652l5.641,-2.072l0.204,-1.709l-1.659,0.045l-1.167,-0.374l-0.606,-1.434l-3.762,-0.359l8.047,-0.928l-0.636,7.538l4.134,0.855l1.102,-0.747l-1.538,-0.458l1.038,-1.646l-0.074,1.453l2.789,0.703l1.02,-0.321l0.541,-0.815l-1.364,0.16l-2.445,-0.687l0.041,-1.058l0.926,-0.314l0.587,-0.199l0.604,-0.846l-0.417,-0.962l-1.466,-0.466l-0.887,0.188l0.809,-0.473l0.966,-0.393l-0.884,-0.743l-1.394,-0.474l1.525,0.313l0.982,0.759l0.888,-0.187l-0.36,-0.53l-2.321,-0.819l-2.966,-0.396l-5.405,0.229l5.247,-0.727l3.142,0.306l2.65,0.815l1.104,1.673l2.193,1.863Zm-1.931,0.09l1.238,0.122l-1.955,-1.554l-0.463,-0.829l-0.521,0.859l0.507,0.85l0.871,0.812l-0.561,0.092l-0.38,0.995l0.206,0.952l0.854,0.099l0.749,-0.074l0.441,-1.154l-0.986,-1.17Z" style="fill-rule:nonzero;"/><path d="M78.514,40.899l0.322,-0.533l-0.304,-0.543l-0.62,-0.011l-0.317,0.533l0.3,0.543l0.619,0.011Z" style="fill-rule:nonzero;"/><path d="M77.636,38.254l0.155,-0.256l-0.147,-0.263l-0.297,-0.006l-0.156,0.258l0.147,0.262l0.298,0.005Z" style="fill-rule:nonzero;"/><path d="M77.157,45.502l0.213,-0.358l-0.2,-0.362l-0.417,-0.007l-0.212,0.355l0.2,0.365l0.416,0.007Z" style="fill-rule:nonzero;"/><path d="M78.399,43.637l0.247,-0.411l-0.233,-0.421l-0.48,-0.008l-0.246,0.412l0.232,0.419l0.48,0.009Z" style="fill-rule:nonzero;"/><path d="M80.434,39.003l-0.278,-0.107l-0.233,0.184l0.044,0.295l0.278,0.111l0.233,-0.188l-0.044,-0.295Z" style="fill-rule:nonzero;"/><path d="M81.547,39.689l-0.278,-0.108l-0.235,0.185l0.045,0.294l0.278,0.11l0.235,-0.187l-0.045,-0.294Z" style="fill-rule:nonzero;"/><path d="M81.671,39.944l-0.227,-0.09l-0.191,0.153l0.037,0.241l0.228,0.089l0.19,-0.152l-0.037,-0.241Z" style="fill-rule:nonzero;"/><path d="M80.701,42.28l-0.387,-0.152l-0.323,0.258l0.061,0.411l0.387,0.152l0.326,-0.258l-0.064,-0.411Z" style="fill-rule:nonzero;"/><path d="M81.621,41.914l0.238,-0.192l0.284,0.112l0.046,0.302l-0.24,0.189l-0.283,-0.111l-0.045,-0.3Z" style="fill-rule:nonzero;"/><path d="M86.182,40.815l-0.08,0.399l-0.385,0.133l-0.306,-0.269l0.078,-0.4l0.385,-0.132l0.308,0.269Z" style="fill-rule:nonzero;"/><path d="M85.812,40.648l-0.075,0.37l-0.353,0.122l-0.285,-0.249l0.072,-0.369l0.358,-0.122l0.283,0.248Z" style="fill-rule:nonzero;"/><path d="M86.158,39.295l-0.08,0.398l-0.384,0.129l-0.303,-0.266l0.076,-0.398l0.386,-0.131l0.305,0.268Z" style="fill-rule:nonzero;"/><path d="M86.768,36.937l-0.077,0.397l-0.383,0.132l-0.308,-0.266l0.08,-0.399l0.384,-0.13l0.304,0.266Z" style="fill-rule:nonzero;"/><path d="M85.703,37.914l-0.094,0.47l-0.452,0.155l-0.358,-0.315l0.092,-0.468l0.452,-0.156l0.36,0.314Z" style="fill-rule:nonzero;"/><path d="M87.635,38.375l-0.094,0.482l-0.468,0.159l-0.371,-0.324l0.096,-0.483l0.466,-0.158l0.371,0.324Z" style="fill-rule:nonzero;"/><path d="M87.576,38.011l-0.052,0.266l-0.257,0.087l-0.204,-0.177l0.053,-0.268l0.256,-0.087l0.204,0.179Z" style="fill-rule:nonzero;"/><path d="M85.188,36.089l0.052,-0.266l0.255,-0.088l0.205,0.18l-0.052,0.264l-0.259,0.088l-0.201,-0.178Z" style="fill-rule:nonzero;"/><path d="M84.378,40.148l0.045,-0.236l0.229,-0.077l0.182,0.157l-0.047,0.237l-0.229,0.079l-0.18,-0.16Z" style="fill-rule:nonzero;"/><path d="M86.691,40.033l0.046,-0.236l0.228,-0.078l0.181,0.159l-0.046,0.234l-0.228,0.08l-0.181,-0.159Z" style="fill-rule:nonzero;"/><path d="M84.512,42.057l0.03,-0.141l0.136,-0.047l0.109,0.094l-0.027,0.144l-0.137,0.047l-0.111,-0.097Z" style="fill-rule:nonzero;"/><path d="M86.169,41.827l0.027,-0.141l0.139,-0.047l0.109,0.094l-0.03,0.143l-0.136,0.048l-0.109,-0.097Z" style="fill-rule:nonzero;"/><path d="M87.216,36.081l0.03,-0.143l0.136,-0.048l0.11,0.096l-0.028,0.144l-0.137,0.047l-0.111,-0.096Z" style="fill-rule:nonzero;"/><path d="M48.077,38.018l0.035,-0.313l0.291,-0.126l0.254,0.189l-0.037,0.315l-0.288,0.125l-0.255,-0.19Z" style="fill-rule:nonzero;"/><path d="M48.252,38.261l0.03,-0.255l0.237,-0.101l0.207,0.152l-0.029,0.257l-0.239,0.102l-0.206,-0.155Z" style="fill-rule:nonzero;"/><path d="M49.641,37.652l0.049,-0.435l0.405,-0.176l0.353,0.263l-0.052,0.439l-0.403,0.174l-0.352,-0.265Z" style="fill-rule:nonzero;"/><path d="M59.774,36.722l-0.517,0.408l-0.611,-0.242l-0.096,-0.651l0.517,-0.407l0.611,0.242l0.096,0.65Z" style="fill-rule:nonzero;"/><path d="M65.193,38.083l-0.247,0.196l-0.295,-0.115l-0.046,-0.314l0.249,-0.196l0.293,0.116l0.046,0.313Z" style="fill-rule:nonzero;"/><path d="M70.975,39l-0.398,0.314l-0.472,-0.187l-0.074,-0.503l0.4,-0.315l0.47,0.188l0.074,0.503Z" style="fill-rule:nonzero;"/><path d="M70.109,50.94l4.282,-1.515l2.15,-1.78l1.248,-2.957l-0.866,3.202l-2.277,2.056l-4.409,1.573l-3.202,0.194l1.738,0.885l-0.945,0.17l-2.529,-1.454l4.81,-0.374Z" style="fill-rule:nonzero;"/><path d="M5.829,46.214l1.608,-0.311l1.352,0.578l3.596,4.421l4.629,1.695l3.802,-0.392l14.934,-7.553l5.597,-6.506l0.044,-0.051l3.979,-2.025l4.675,-0.756l0.027,-0.004l11.105,0.068l0.037,0l9.794,2.273l2.384,-0.685l4.399,0.101l-4.372,0.455l-2.372,0.836l-9.913,-2.301l-11.009,-0.068l-4.542,0.734l-3.766,1.917l-5.641,6.557l-15.112,7.64l-0.055,0.03l-4.084,0.422l-4.952,-1.813l-2.258,-2.782l-0.526,1.225l-1.162,0.296l2.639,3.003l5.542,2.23l5.794,-0.562l11.936,-5.982l0.055,-0.03l3.653,-0.166l1.288,1.684l3.829,1.784l3.717,0.734l2.923,0.279l1.173,0.814l-0.766,-2.778l-1.546,-2.508l-5.345,2.129l-3.136,-1.864l3.114,1.358l5.653,-2.36l1.989,3.091l1.18,3.723l0.139,2.933l0.833,0.888l2.946,0l5.587,-2.283l3.834,0.359l0.499,-0.929l-1.926,-1.376l-4.157,0.32l-5.028,0.595l0.839,-5.117l0.006,0l0.731,-3.301l0,-2.709l-2.761,-4.632l-2.042,-0.583l-5.925,2.056l-1.03,-0.626l1.027,0.354l5.973,-2.242l2.316,0.611l3.062,4.939l0,2.967l-0.638,3.259l4.284,0.547l-0.107,-3.1l7.717,-3.796l0.591,-0.784l-0.386,0.907l-7.261,4.155l0.153,3.467l5.183,3.697l3.175,1.719l-0.766,1.34l-3.262,1.681l-0.299,0.918l1.1,0.417l4.715,-2.012l1.365,-0.776l0.531,-1.567l-4.911,-4.325l7.102,-1.263l4.252,-3.894l2.878,-2.923l-2.493,3.239l-4.354,4.216l-5.876,1.047l4.192,3.691l-0.76,2.242l-1.607,0.912l-4.77,2.036l0.68,0.311l4.404,-0.549l1.183,1.311l0,1.587l-1.693,0.644l-5.237,0.351l-8.585,-4.151l-1.614,-2.275l-3.132,0l-1.206,-1.285l-0.133,-2.848l-1.896,-1.312l-2.765,-0.266l-3.845,-0.76l-4.057,-1.888l-1.153,-1.508l-3.144,0.105l-11.938,5.985l-6.155,0.487l-5.847,-2.225l-4.015,-4.573l-0.611,-1.643l0.198,-1.352Zm50.021,4.731l-0.586,3.58l3.029,-0.358l-1.35,-3.081l-1.093,-0.141Zm4.482,1.094l-0.018,-0.523l-2.584,-0.331l1.269,2.896l0.403,-0.047l3.366,-0.258l-2.436,-1.737Zm7.766,5.882l0.322,-0.562l-2.283,-1.233l-0.693,1.291l-4.116,-0.387l-0.888,0.362l1.881,2.828l1.968,0.894l0.48,-1.475l3.329,-1.718Zm-10.502,3.118l8.266,3.996l4.957,-0.331l1.16,-0.441l0,-0.858l-0.77,-0.852l-4.244,0.525l-5.102,-2.321l-2.065,-3.103l-3.569,1.458l1.367,1.927Z" style="fill-rule:nonzero;"/></g></svg>
