<?xml version="1.0" encoding="UTF-8" standalone="no"?>
<!DOCTYPE svg PUBLIC "-//W3C//DTD SVG 1.1//EN" "http://www.w3.org/Graphics/SVG/1.1/DTD/svg11.dtd">
<svg width="2%" height="2%" viewBox="0 0 69 12" version="1.1" xmlns="http://www.w3.org/2000/svg" xmlns:xlink="http://www.w3.org/1999/xlink" xml:space="preserve" xmlns:serif="http://www.serif.com/" style="fill-rule:evenodd;clip-rule:evenodd;stroke-linejoin:round;stroke-miterlimit:2;">
    <g transform="matrix(-1,0,0,1,94.37,-34.273)">
        <path d="M23.701,41.807L23.316,41.033L23.793,40.312L24.658,40.366L25.043,41.14L24.564,41.861L23.701,41.807Z" style="fill-rule:nonzero;"/>
        <path d="M24.648,41.674L24.376,41.126L24.714,40.617L25.322,40.653L25.597,41.202L25.257,41.711L24.648,41.674Z" style="fill-rule:nonzero;"/>
        <path d="M25.545,43.757L25.251,43.169L25.616,42.621L26.271,42.661L26.566,43.25L26.201,43.798L25.545,43.757Z" style="fill-rule:nonzero;"/>
        <path d="M27.095,47.396L26.803,46.808L27.166,46.258L27.82,46.299L28.115,46.889L27.751,47.437L27.095,47.396Z" style="fill-rule:nonzero;"/>
        <path d="M23.463,49.12L23.245,48.685L23.515,48.279L24,48.31L24.214,48.745L23.948,49.149L23.463,49.12Z" style="fill-rule:nonzero;"/>
        <path d="M27.497,45.081L27.15,44.386L27.581,43.741L28.354,43.789L28.7,44.482L28.271,45.129L27.497,45.081Z" style="fill-rule:nonzero;"/>
        <path d="M24.264,48.293L23.986,47.738L24.329,47.222L24.947,47.26L25.223,47.815L24.88,48.332L24.264,48.293Z" style="fill-rule:nonzero;"/>
        <path d="M24.557,46.406L24.199,45.689L24.642,45.023L25.438,45.073L25.797,45.788L25.353,46.456L24.557,46.406Z" style="fill-rule:nonzero;"/>
        <path d="M23.575,44.019L23.378,43.623L23.622,43.257L24.061,43.285L24.258,43.678L24.014,44.046L23.575,44.019Z" style="fill-rule:nonzero;"/>
        <path d="M26.75,41.292L26.609,41.01L26.784,40.744L27.102,40.765L27.241,41.049L27.067,41.311L26.75,41.292Z" style="fill-rule:nonzero;"/>
        <path d="M27.575,42.405L27.435,42.121L27.609,41.858L27.925,41.877L28.065,42.161L27.892,42.424L27.575,42.405Z" style="fill-rule:nonzero;"/>
        <path d="M27.856,42.513L27.741,42.283L27.884,42.066L28.142,42.083L28.257,42.314L28.114,42.528L27.856,42.513Z" style="fill-rule:nonzero;"/>
        <path d="M26.22,48.854L26.024,48.46L26.267,48.092L26.708,48.119L26.902,48.515L26.66,48.881L26.22,48.854Z" style="fill-rule:nonzero;"/>
        <path d="M26.631,49.344L26.434,48.951L26.679,48.585L27.117,48.612L27.312,49.006L27.069,49.372L26.631,49.344Z" style="fill-rule:nonzero;"/>
        <path d="M28.686,41.246L28.489,40.85L28.733,40.483L29.172,40.511L29.368,40.904L29.125,41.273L28.686,41.246Z" style="fill-rule:nonzero;"/>
        <path d="M25.26,46.833L25.062,46.438L25.306,46.07L25.746,46.098L25.941,46.493L25.698,46.86L25.26,46.833Z" style="fill-rule:nonzero;"/>
        <path d="M56.427,40.174L56.906,39.452L56.521,38.677L55.657,38.624L55.18,39.345L55.563,40.121L56.427,40.174Z" style="fill-rule:nonzero;"/>
        <path d="M55.503,39.924L55.843,39.415L55.569,38.867L54.961,38.828L54.624,39.339L54.895,39.886L55.503,39.924Z" style="fill-rule:nonzero;"/>
        <path d="M80.753,54.237L81.233,53.514L80.847,52.74L79.983,52.686L79.507,53.406L79.893,54.183L80.753,54.237Z" style="fill-rule:nonzero;"/>
        <path d="M79.832,53.987L80.17,53.478L79.898,52.93L79.29,52.892L78.95,53.401L79.224,53.949L79.832,53.987Z" style="fill-rule:nonzero;"/>
        <path d="M53.541,42.833L53.905,42.286L53.612,41.696L52.957,41.655L52.593,42.203L52.886,42.792L53.541,42.833Z" style="fill-rule:nonzero;"/>
        <path d="M58.397,41.195L58.76,40.645L58.466,40.057L57.809,40.016L57.446,40.564L57.737,41.154L58.397,41.195Z" style="fill-rule:nonzero;"/>
        <path d="M66.041,48.999L66.403,48.449L66.112,47.861L65.452,47.82L65.091,48.369L65.384,48.958L66.041,48.999Z" style="fill-rule:nonzero;"/>
        <path d="M86.701,52.771L87.043,52.261L86.774,51.71L86.163,51.669L85.821,52.179L86.09,52.729L86.701,52.771Z" style="fill-rule:nonzero;"/>
        <path d="M51.554,46.25L51.921,45.702L51.625,45.114L50.97,45.073L50.605,45.621L50.898,46.21L51.554,46.25Z" style="fill-rule:nonzero;"/>
        <path d="M55.213,48.425L55.481,48.021L55.265,47.586L54.782,47.556L54.514,47.961L54.73,48.395L55.213,48.425Z" style="fill-rule:nonzero;"/>
        <path d="M51.441,43.904L51.872,43.257L51.526,42.562L50.751,42.514L50.321,43.161L50.668,43.856L51.441,43.904Z" style="fill-rule:nonzero;"/>
        <path d="M54.835,47.841L55.175,47.324L54.9,46.772L54.281,46.734L53.941,47.248L54.215,47.803L54.835,47.841Z" style="fill-rule:nonzero;"/>
        <path d="M54.199,45.584L54.64,44.918L54.284,44.199L53.486,44.149L53.042,44.818L53.398,45.533L54.199,45.584Z" style="fill-rule:nonzero;"/>
        <path d="M55.465,43.334L55.709,42.967L55.512,42.572L55.073,42.544L54.829,42.913L55.026,43.307L55.465,43.334Z" style="fill-rule:nonzero;"/>
        <path d="M53.021,37.525L53.265,37.159L53.069,36.763L52.631,36.737L52.388,37.104L52.582,37.498L53.021,37.525Z" style="fill-rule:nonzero;"/>
        <path d="M59.763,44.469L59.943,44.2L59.798,43.909L59.478,43.89L59.297,44.159L59.441,44.448L59.763,44.469Z" style="fill-rule:nonzero;"/>
        <path d="M88.358,52.883L88.54,52.614L88.395,52.324L88.074,52.305L87.893,52.573L88.038,52.864L88.358,52.883Z" style="fill-rule:nonzero;"/>
        <path d="M65.567,47.186L65.748,46.917L65.605,46.629L65.282,46.606L65.104,46.872L65.244,47.164L65.567,47.186Z" style="fill-rule:nonzero;"/>
        <path d="M80.556,52.963L80.734,52.694L80.595,52.403L80.271,52.382L80.093,52.65L80.232,52.94L80.556,52.963Z" style="fill-rule:nonzero;"/>
        <path d="M67.102,48.048L67.244,47.835L67.132,47.606L66.877,47.59L66.734,47.801L66.847,48.031L67.102,48.048Z" style="fill-rule:nonzero;"/>
        <path d="M70.988,50.154L71.128,49.942L71.019,49.714L70.764,49.696L70.621,49.906L70.733,50.136L70.988,50.154Z" style="fill-rule:nonzero;"/>
        <path d="M69.224,49.144L69.311,49.01L69.242,48.862L69.081,48.851L68.987,48.986L69.062,49.133L69.224,49.144Z" style="fill-rule:nonzero;"/>
        <path d="M73.326,51.163L73.431,51.004L73.348,50.831L73.156,50.817L73.052,50.978L73.134,51.149L73.326,51.163Z" style="fill-rule:nonzero;"/>
        <path d="M52.911,50.69L53.015,50.532L52.933,50.359L52.741,50.346L52.637,50.505L52.719,50.678L52.911,50.69Z" style="fill-rule:nonzero;"/>
        <path d="M49.945,47.727L50.051,47.57L49.967,47.397L49.775,47.383L49.669,47.542L49.753,47.715L49.945,47.727Z" style="fill-rule:nonzero;"/>
        <path d="M30.09,58.346L30.195,58.187L30.113,58.014L29.921,58L29.815,58.159L29.898,58.332L30.09,58.346Z" style="fill-rule:nonzero;"/>
        <path d="M37.893,55.415L37.998,55.257L37.916,55.084L37.724,55.07L37.618,55.231L37.701,55.401L37.893,55.415Z" style="fill-rule:nonzero;"/>
        <path d="M71.095,50.302L71.183,50.168L71.114,50.021L70.95,50.01L70.859,50.145L70.931,50.291L71.095,50.302Z" style="fill-rule:nonzero;"/>
        <path d="M75.686,51.916L75.779,51.781L75.705,51.634L75.543,51.622L75.453,51.76L75.524,51.904L75.686,51.916Z" style="fill-rule:nonzero;"/>
        <path d="M83.412,52.74L83.505,52.606L83.434,52.458L83.27,52.447L83.182,52.582L83.25,52.729L83.412,52.74Z" style="fill-rule:nonzero;"/>
        <path d="M52.647,39.829L52.826,39.565L52.684,39.282L52.368,39.263L52.192,39.526L52.335,39.81L52.647,39.829Z" style="fill-rule:nonzero;"/>
        <path d="M57.211,42.49L57.384,42.225L57.244,41.943L56.929,41.922L56.753,42.186L56.896,42.471L57.211,42.49Z" style="fill-rule:nonzero;"/>
        <path d="M69.985,50.439L70.16,50.175L70.021,49.892L69.703,49.873L69.527,50.136L69.67,50.42L69.985,50.439Z" style="fill-rule:nonzero;"/>
        <path d="M51.122,36.869L51.294,36.604L51.154,36.322L50.838,36.301L50.664,36.564L50.806,36.85L51.122,36.869Z" style="fill-rule:nonzero;"/>
        <path d="M59.352,42.623L59.526,42.358L59.387,42.075L59.069,42.055L58.894,42.318L59.036,42.604L59.352,42.623Z" style="fill-rule:nonzero;"/>
        <path d="M78.424,54.404L78.6,54.139L78.459,53.856L78.142,53.837L77.966,54.1L78.108,54.382L78.424,54.404Z" style="fill-rule:nonzero;"/>
        <path d="M58.381,45.807L58.557,45.543L58.417,45.261L58.099,45.24L57.926,45.504L58.066,45.788L58.381,45.807Z" style="fill-rule:nonzero;"/>
        <path d="M51.686,51.158L51.861,50.894L51.719,50.61L51.402,50.591L51.23,50.854L51.368,51.14L51.686,51.158Z" style="fill-rule:nonzero;"/>
        <path d="M51.693,41.24L51.869,40.974L51.729,40.692L51.411,40.673L51.238,40.935L51.379,41.219L51.693,41.24Z" style="fill-rule:nonzero;"/>
        <path d="M51.402,41.311L51.546,41.096L51.431,40.866L51.173,40.85L51.031,41.063L51.145,41.296L51.402,41.311Z" style="fill-rule:nonzero;"/>
        <path d="M52.242,47.805L52.488,47.438L52.289,47.045L51.85,47.019L51.606,47.383L51.804,47.779L52.242,47.805Z" style="fill-rule:nonzero;"/>
        <path d="M51.776,48.244L52.018,47.876L51.822,47.482L51.382,47.455L51.14,47.822L51.334,48.216L51.776,48.244Z" style="fill-rule:nonzero;"/>
        <path d="M56.739,46L56.98,45.635L56.786,45.239L56.345,45.212L56.104,45.581L56.298,45.973L56.739,46Z" style="fill-rule:nonzero;"/>
        <path d="M72.062,51.385L72.304,51.019L72.109,50.623L71.668,50.595L71.427,50.964L71.621,51.357L72.062,51.385Z" style="fill-rule:nonzero;"/>
        <path d="M50.735,40.086L50.979,39.72L50.783,39.324L50.345,39.298L50.1,39.666L50.299,40.059L50.735,40.086Z" style="fill-rule:nonzero;"/>
        <path d="M58.14,44.087L58.422,43.663L58.194,43.209L57.688,43.178L57.408,43.6L57.636,44.056L58.14,44.087Z" style="fill-rule:nonzero;"/>
        <path d="M89.927,51.444L90.209,51.021L89.981,50.566L89.477,50.535L89.194,50.957L89.422,51.414L89.927,51.444Z" style="fill-rule:nonzero;"/>
        <path d="M86.251,54.5L86.432,54.231L86.284,53.941L85.966,53.922L85.785,54.19L85.931,54.48L86.251,54.5Z" style="fill-rule:nonzero;"/>
        <path d="M84.629,54.119L84.911,53.694L84.684,53.239L84.177,53.209L83.895,53.631L84.122,54.089L84.629,54.119Z" style="fill-rule:nonzero;"/>
        <path d="M53.714,45.934L53.955,45.569L53.761,45.173L53.322,45.147L53.078,45.514L53.275,45.907L53.714,45.934Z" style="fill-rule:nonzero;"/>
        <path d="M77.1,53.505L77.538,52.839L77.185,52.121L76.385,52.069L75.943,52.738L76.3,53.456L77.1,53.505Z" style="fill-rule:nonzero;"/>
        <path d="M76.615,53.856L76.856,53.489L76.661,53.094L76.223,53.066L75.977,53.434L76.177,53.829L76.615,53.856Z" style="fill-rule:nonzero;"/>
        <path d="M43.883,44.249L43.407,44.97L43.791,45.744L44.655,45.798L45.132,45.077L44.747,44.303L43.883,44.249Z" style="fill-rule:nonzero;"/>
        <path d="M44.806,44.499L44.468,45.008L44.74,45.554L45.352,45.592L45.688,45.084L45.416,44.537L44.806,44.499Z" style="fill-rule:nonzero;"/>
        <path d="M45.953,42.542L45.59,43.09L45.883,43.678L46.539,43.719L46.904,43.171L46.61,42.582L45.953,42.542Z" style="fill-rule:nonzero;"/>
        <path d="M41.101,44.178L40.736,44.726L41.029,45.317L41.686,45.356L42.05,44.809L41.757,44.219L41.101,44.178Z" style="fill-rule:nonzero;"/>
        <path d="M47.942,39.123L47.577,39.669L47.871,40.26L48.528,40.301L48.89,39.752L48.598,39.163L47.942,39.123Z" style="fill-rule:nonzero;"/>
        <path d="M44.282,36.947L44.014,37.353L44.23,37.787L44.714,37.817L44.981,37.411L44.767,36.977L44.282,36.947Z" style="fill-rule:nonzero;"/>
        <path d="M48.362,42.017L47.932,42.664L48.278,43.358L49.053,43.406L49.481,42.76L49.137,42.065L48.362,42.017Z" style="fill-rule:nonzero;"/>
        <path d="M44.663,37.532L44.319,38.047L44.597,38.602L45.213,38.641L45.557,38.124L45.28,37.57L44.663,37.532Z" style="fill-rule:nonzero;"/>
        <path d="M44.5,39.792L44.06,40.458L44.415,41.173L45.213,41.224L45.655,40.558L45.3,39.841L44.5,39.792Z" style="fill-rule:nonzero;"/>
        <path d="M44.03,42.039L43.788,42.408L43.982,42.799L44.424,42.827L44.666,42.461L44.471,42.066L44.03,42.039Z" style="fill-rule:nonzero;"/>
        <path d="M39.731,40.906L39.552,41.173L39.697,41.463L40.02,41.484L40.197,41.212L40.054,40.926L39.731,40.906Z" style="fill-rule:nonzero;"/>
        <path d="M46.845,45.136L46.671,45.4L46.811,45.683L47.127,45.702L47.304,45.438L47.162,45.155L46.845,45.136Z" style="fill-rule:nonzero;"/>
        <path d="M42.286,42.884L42.109,43.147L42.252,43.433L42.568,43.452L42.741,43.187L42.603,42.904L42.286,42.884Z" style="fill-rule:nonzero;"/>
        <path d="M40.145,42.751L39.969,43.016L40.11,43.3L40.427,43.319L40.601,43.054L40.461,42.772L40.145,42.751Z" style="fill-rule:nonzero;"/>
        <path d="M38.956,45.636L38.779,45.9L38.922,46.184L39.237,46.203L39.412,45.939L39.271,45.655L38.956,45.636Z" style="fill-rule:nonzero;"/>
        <path d="M41.114,39.567L40.94,39.83L41.08,40.115L41.396,40.134L41.57,39.87L41.43,39.586L41.114,39.567Z" style="fill-rule:nonzero;"/>
        <path d="M47.8,44.134L47.628,44.398L47.766,44.682L48.083,44.702L48.26,44.437L48.117,44.155L47.8,44.134Z" style="fill-rule:nonzero;"/>
        <path d="M48.094,44.063L47.952,44.277L48.066,44.508L48.325,44.523L48.466,44.308L48.353,44.078L48.094,44.063Z" style="fill-rule:nonzero;"/>
        <path d="M47.254,37.566L47.01,37.935L47.207,38.327L47.646,38.354L47.888,37.988L47.692,37.593L47.254,37.566Z" style="fill-rule:nonzero;"/>
        <path d="M47.721,37.13L47.479,37.498L47.674,37.891L48.112,37.918L48.356,37.552L48.161,37.158L47.721,37.13Z" style="fill-rule:nonzero;"/>
        <path d="M42.759,39.372L42.514,39.738L42.711,40.133L43.149,40.16L43.394,39.793L43.197,39.398L42.759,39.372Z" style="fill-rule:nonzero;"/>
        <path d="M48.761,45.422L48.516,45.788L48.714,46.184L49.152,46.21L49.396,45.843L49.199,45.45L48.761,45.422Z" style="fill-rule:nonzero;"/>
        <path d="M41.355,41.285L41.073,41.71L41.301,42.165L41.808,42.196L42.09,41.773L41.862,41.317L41.355,41.285Z" style="fill-rule:nonzero;"/>
        <path d="M46.783,40.738L46.501,41.163L46.729,41.62L47.235,41.651L47.518,41.226L47.29,40.77L46.783,40.738Z" style="fill-rule:nonzero;"/>
        <path d="M44.984,39.438L44.74,39.807L44.938,40.2L45.376,40.227L45.62,39.86L45.423,39.465L44.984,39.438Z" style="fill-rule:nonzero;"/>
        <path d="M46.062,35.909L45.62,36.577L45.975,37.292L46.773,37.341L47.215,36.675L46.858,35.958L46.062,35.909Z" style="fill-rule:nonzero;"/>
        <path d="M46.545,35.693L46.3,36.06L46.497,36.455L46.936,36.482L47.18,36.115L46.983,35.72L46.545,35.693Z" style="fill-rule:nonzero;"/>
        <path d="M33.604,45.48L33.128,46.202L33.513,46.976L34.376,47.03L34.854,46.309L34.47,45.533L33.604,45.48Z" style="fill-rule:nonzero;"/>
        <path d="M34.528,45.73L34.19,46.24L34.463,46.789L35.074,46.826L35.409,46.316L35.139,45.768L34.528,45.73Z" style="fill-rule:nonzero;"/>
        <path d="M35.676,43.772L35.312,44.322L35.604,44.911L36.262,44.952L36.625,44.404L36.333,43.813L35.676,43.772Z" style="fill-rule:nonzero;"/>
        <path d="M31.137,45.429L30.773,45.979L31.067,46.568L31.724,46.607L32.087,46.06L31.793,45.47L31.137,45.429Z" style="fill-rule:nonzero;"/>
        <path d="M37.662,40.354L37.299,40.903L37.593,41.492L38.249,41.532L38.612,40.984L38.32,40.396L37.662,40.354Z" style="fill-rule:nonzero;"/>
        <path d="M34.004,38.179L33.735,38.584L33.951,39.02L34.436,39.049L34.704,38.645L34.487,38.209L34.004,38.179Z" style="fill-rule:nonzero;"/>
        <path d="M37.774,42.701L37.346,43.348L37.692,44.042L38.468,44.09L38.896,43.445L38.551,42.749L37.774,42.701Z" style="fill-rule:nonzero;"/>
        <path d="M34.386,38.764L34.042,39.28L34.318,39.835L34.936,39.874L35.276,39.357L35.001,38.802L34.386,38.764Z" style="fill-rule:nonzero;"/>
        <path d="M35.021,41.023L34.578,41.689L34.936,42.406L35.734,42.456L36.174,41.788L35.819,41.073L35.021,41.023Z" style="fill-rule:nonzero;"/>
        <path d="M33.753,43.271L33.511,43.638L33.705,44.033L34.146,44.06L34.389,43.693L34.192,43.298L33.753,43.271Z" style="fill-rule:nonzero;"/>
        <path d="M29.453,42.138L29.274,42.408L29.417,42.695L29.742,42.714L29.92,42.447L29.776,42.157L29.453,42.138Z" style="fill-rule:nonzero;"/>
        <path d="M21.641,46.176L21.464,46.447L21.606,46.734L21.931,46.754L22.107,46.487L21.965,46.196L21.641,46.176Z" style="fill-rule:nonzero;"/>
        <path d="M29.102,46.5L29.402,46.409L29.635,46.624L29.563,46.933L29.261,47.025L29.03,46.809L29.102,46.5Z" style="fill-rule:nonzero;"/>
        <path d="M36.567,46.368L36.394,46.632L36.533,46.916L36.85,46.937L37.025,46.672L36.884,46.387L36.567,46.368Z" style="fill-rule:nonzero;"/>
        <path d="M32.009,44.118L31.832,44.379L31.975,44.663L32.288,44.684L32.463,44.419L32.322,44.137L32.009,44.118Z" style="fill-rule:nonzero;"/>
        <path d="M29.866,43.985L29.689,44.247L29.832,44.532L30.148,44.551L30.321,44.286L30.183,44.004L29.866,43.985Z" style="fill-rule:nonzero;"/>
        <path d="M36.592,51.979L36.415,52.239L36.558,52.524L36.874,52.543L37.047,52.28L36.907,51.998L36.592,51.979Z" style="fill-rule:nonzero;"/>
        <path d="M30.835,40.8L30.66,41.062L30.801,41.347L31.116,41.366L31.293,41.102L31.15,40.819L30.835,40.8Z" style="fill-rule:nonzero;"/>
        <path d="M37.522,45.368L37.349,45.629L37.488,45.914L37.805,45.934L37.98,45.669L37.839,45.387L37.522,45.368Z" style="fill-rule:nonzero;"/>
        <path d="M37.815,45.295L37.674,45.509L37.788,45.739L38.045,45.755L38.188,45.542L38.072,45.311L37.815,45.295Z" style="fill-rule:nonzero;"/>
        <path d="M39.307,54.961L39.133,55.224L39.274,55.506L39.591,55.528L39.765,55.262L39.623,54.979L39.307,54.961Z" style="fill-rule:nonzero;"/>
        <path d="M39.602,54.89L39.459,55.104L39.574,55.333L39.83,55.35L39.972,55.133L39.857,54.903L39.602,54.89Z" style="fill-rule:nonzero;"/>
        <path d="M36.975,38.799L36.732,39.165L36.927,39.56L37.368,39.587L37.61,39.22L37.414,38.827L36.975,38.799Z" style="fill-rule:nonzero;"/>
        <path d="M37.443,38.362L37.2,38.729L37.396,39.123L37.835,39.15L38.079,38.784L37.882,38.39L37.443,38.362Z" style="fill-rule:nonzero;"/>
        <path d="M32.481,40.604L32.236,40.97L32.434,41.366L32.872,41.394L33.114,41.023L32.92,40.631L32.481,40.604Z" style="fill-rule:nonzero;"/>
        <path d="M36.994,47.776L36.751,48.144L36.945,48.537L37.387,48.564L37.63,48.199L37.434,47.804L36.994,47.776Z" style="fill-rule:nonzero;"/>
        <path d="M31.076,42.52L30.794,42.942L31.021,43.397L31.528,43.428L31.81,43.005L31.584,42.551L31.076,42.52Z" style="fill-rule:nonzero;"/>
        <path d="M35.506,40.671L35.26,41.039L35.458,41.432L35.896,41.459L36.138,41.093L35.942,40.699L35.506,40.671Z" style="fill-rule:nonzero;"/>
        <path d="M46.238,55.078L45.485,55.506L45.478,56.369L46.225,56.808L46.977,56.38L46.983,55.517L46.238,55.078Z" style="fill-rule:nonzero;"/>
        <path d="M46.729,55.717L46.198,56.021L46.195,56.633L46.725,56.939L47.255,56.638L47.258,56.024L46.729,55.717Z" style="fill-rule:nonzero;"/>
        <path d="M46.226,52.396L45.861,52.943L46.154,53.532L46.811,53.574L47.176,53.025L46.882,52.437L46.226,52.396Z" style="fill-rule:nonzero;"/>
        <path d="M47.915,51.082L47.552,51.631L47.846,52.22L48.502,52.261L48.866,51.713L48.573,51.123L47.915,51.082Z" style="fill-rule:nonzero;"/>
        <path d="M48.332,48.878L47.966,49.428L48.262,50.017L48.916,50.057L49.281,49.509L48.987,48.919L48.332,48.878Z" style="fill-rule:nonzero;"/>
        <path d="M44.672,46.704L44.403,47.109L44.62,47.543L45.104,47.574L45.372,47.169L45.155,46.734L44.672,46.704Z" style="fill-rule:nonzero;"/>
        <path d="M36.047,36.586L35.618,37.234L35.965,37.929L36.737,37.977L37.168,37.331L36.821,36.634L36.047,36.586Z" style="fill-rule:nonzero;"/>
        <path d="M63.128,46.86L62.697,47.508L63.043,48.203L63.818,48.25L64.249,47.604L63.9,46.908L63.128,46.86Z" style="fill-rule:nonzero;"/>
        <path d="M45.053,47.289L44.71,47.805L44.987,48.359L45.604,48.397L45.946,47.882L45.669,47.327L45.053,47.289Z" style="fill-rule:nonzero;"/>
        <path d="M45.688,49.548L45.247,50.214L45.603,50.93L46.401,50.979L46.844,50.313L46.486,49.598L45.688,49.548Z" style="fill-rule:nonzero;"/>
        <path d="M43.982,51.957L43.738,52.327L43.936,52.719L44.374,52.746L44.617,52.382L44.421,51.984L43.982,51.957Z" style="fill-rule:nonzero;"/>
        <path d="M47.173,54.64L46.997,54.903L47.139,55.188L47.453,55.207L47.63,54.944L47.488,54.659L47.173,54.64Z" style="fill-rule:nonzero;"/>
        <path d="M42.675,52.642L42.501,52.905L42.643,53.188L42.957,53.206L43.132,52.943L42.99,52.661L42.675,52.642Z" style="fill-rule:nonzero;"/>
        <path d="M41.474,38.157L41.301,38.42L41.44,38.704L41.756,38.723L41.931,38.458L41.79,38.176L41.474,38.157Z" style="fill-rule:nonzero;"/>
        <path d="M61.884,42.927L61.706,43.191L61.851,43.475L62.163,43.494L62.339,43.231L62.199,42.947L61.884,42.927Z" style="fill-rule:nonzero;"/>
        <path d="M62.177,42.854L62.031,43.071L62.146,43.301L62.404,43.317L62.547,43.104L62.432,42.871L62.177,42.854Z" style="fill-rule:nonzero;"/>
        <path d="M47.643,47.324L47.398,47.69L47.596,48.085L48.034,48.112L48.28,47.745L48.081,47.352L47.643,47.324Z" style="fill-rule:nonzero;"/>
        <path d="M48.11,46.887L47.869,47.254L48.062,47.647L48.503,47.675L48.747,47.309L48.55,46.915L48.11,46.887Z" style="fill-rule:nonzero;"/>
        <path d="M63.276,44.304L63.032,44.671L63.229,45.064L63.668,45.092L63.912,44.726L63.715,44.33L63.276,44.304Z" style="fill-rule:nonzero;"/>
        <path d="M46.172,49.195L45.929,49.563L46.126,49.957L46.564,49.984L46.809,49.618L46.61,49.222L46.172,49.195Z" style="fill-rule:nonzero;"/>
        <path d="M30.362,49.143L30.19,48.296L29.369,48.019L28.72,48.592L28.894,49.44L29.713,49.715L30.362,49.143Z" style="fill-rule:nonzero;"/>
        <path d="M29.532,49.62L29.411,49.02L28.832,48.826L28.374,49.23L28.495,49.828L29.076,50.024L29.532,49.62Z" style="fill-rule:nonzero;"/>
        <path d="M32.969,38.974L32.838,38.328L32.215,38.12L31.721,38.554L31.853,39.198L32.476,39.408L32.969,38.974Z" style="fill-rule:nonzero;"/>
        <path d="M32.567,48.228L32.436,47.581L31.812,47.374L31.32,47.808L31.449,48.452L32.074,48.662L32.567,48.228Z" style="fill-rule:nonzero;"/>
        <path d="M25.464,38.126L25.332,37.482L24.709,37.273L24.217,37.708L24.347,38.354L24.971,38.562L25.464,38.126Z" style="fill-rule:nonzero;"/>
        <path d="M27.989,39L27.894,38.524L27.432,38.371L27.067,38.692L27.163,39.168L27.625,39.321L27.989,39Z" style="fill-rule:nonzero;"/>
        <path d="M29.297,40.56L29.143,39.798L28.407,39.552L27.826,40.065L27.98,40.826L28.717,41.073L29.297,40.56Z" style="fill-rule:nonzero;"/>
        <path d="M34.545,54.514L34.424,53.908L33.837,53.711L33.372,54.119L33.495,54.728L34.082,54.925L34.545,54.514Z" style="fill-rule:nonzero;"/>
        <path d="M32.59,54.122L32.431,53.338L31.671,53.083L31.072,53.615L31.232,54.398L31.99,54.65L32.59,54.122Z" style="fill-rule:nonzero;"/>
        <path d="M31.395,50.43L31.306,49.998L30.889,49.858L30.559,50.15L30.645,50.583L31.062,50.723L31.395,50.43Z" style="fill-rule:nonzero;"/>
        <path d="M25.88,50.33L25.794,49.898L25.375,49.757L25.046,50.048L25.134,50.481L25.55,50.622L25.88,50.33Z" style="fill-rule:nonzero;"/>
        <path d="M35.85,49.573L35.785,49.256L35.479,49.155L35.237,49.369L35.302,49.686L35.608,49.788L35.85,49.573Z" style="fill-rule:nonzero;"/>
        <path d="M41.379,56.101L41.314,55.783L41.009,55.682L40.767,55.896L40.832,56.213L41.138,56.314L41.379,56.101Z" style="fill-rule:nonzero;"/>
        <path d="M27.829,51.188L27.765,50.877L27.464,50.776L27.228,50.986L27.29,51.297L27.591,51.396L27.829,51.188Z" style="fill-rule:nonzero;"/>
        <path d="M32.646,49.981L32.583,49.669L32.281,49.569L32.045,49.779L32.108,50.088L32.407,50.188L32.646,49.981Z" style="fill-rule:nonzero;"/>
        <path d="M34.252,48.561L34.19,48.25L33.889,48.148L33.651,48.357L33.715,48.668L34.015,48.769L34.252,48.561Z" style="fill-rule:nonzero;"/>
        <path d="M31.962,55.821L31.9,55.509L31.599,55.407L31.361,55.618L31.425,55.928L31.724,56.029L31.962,55.821Z" style="fill-rule:nonzero;"/>
        <path d="M35.819,51.496L35.756,51.188L35.455,51.087L35.219,51.296L35.281,51.605L35.581,51.707L35.819,51.496Z" style="fill-rule:nonzero;"/>
        <path d="M30.661,55.788L30.599,55.479L30.298,55.377L30.062,55.585L30.124,55.897L30.424,55.999L30.661,55.788Z" style="fill-rule:nonzero;"/>
        <path d="M19.559,44.108L19.496,43.798L19.195,43.698L18.959,43.907L19.021,44.218L19.321,44.319L19.559,44.108Z" style="fill-rule:nonzero;"/>
        <path d="M19.404,44.366L19.352,44.114L19.109,44.031L18.916,44.203L18.964,44.455L19.211,44.537L19.404,44.366Z" style="fill-rule:nonzero;"/>
        <path d="M34.793,52.798L34.705,52.365L34.29,52.226L33.958,52.519L34.046,52.949L34.464,53.089L34.793,52.798Z" style="fill-rule:nonzero;"/>
        <path d="M21.355,45.665L21.268,45.233L20.85,45.093L20.518,45.385L20.605,45.817L21.025,45.957L21.355,45.665Z" style="fill-rule:nonzero;"/>
        <path d="M34.433,50.452L34.331,49.956L33.849,49.792L33.469,50.129L33.569,50.628L34.05,50.789L34.433,50.452Z" style="fill-rule:nonzero;"/>
        <path d="M32.496,54.714L32.408,54.281L31.992,54.141L31.662,54.435L31.749,54.864L32.167,55.005L32.496,54.714Z" style="fill-rule:nonzero;"/>
        <path d="M43.729,56.559L43.598,55.911L42.976,55.703L42.48,56.139L42.612,56.783L43.235,56.994L43.729,56.559Z" style="fill-rule:nonzero;"/>
        <path d="M68.987,48.745L68.546,48.255L67.905,48.391L67.699,49.017L68.141,49.506L68.785,49.37L68.987,48.745Z" style="fill-rule:nonzero;"/>
        <path d="M42.585,48.07L42.26,47.709L41.786,47.81L41.634,48.272L41.96,48.633L42.434,48.533L42.585,48.07Z" style="fill-rule:nonzero;"/>
        <path d="M29.506,56.706L29.18,56.348L28.706,56.449L28.555,56.909L28.88,57.271L29.354,57.17L29.506,56.706Z" style="fill-rule:nonzero;"/>
        <path d="M38.566,50.083L38.048,49.504L37.288,49.667L37.05,50.405L37.569,50.982L38.328,50.82L38.566,50.083Z" style="fill-rule:nonzero;"/>
        <path d="M43.302,46.379L42.889,45.92L42.283,46.048L42.093,46.636L42.508,47.097L43.111,46.968L43.302,46.379Z" style="fill-rule:nonzero;"/>
        <path d="M41.383,46.568L40.849,45.973L40.066,46.139L39.818,46.901L40.354,47.494L41.137,47.329L41.383,46.568Z" style="fill-rule:nonzero;"/>
        <path d="M46.467,58.041L46.404,57.724L46.097,57.622L45.855,57.836L45.92,58.15L46.225,58.255L46.467,58.041Z" style="fill-rule:nonzero;"/>
        <path d="M41.139,59.299L41.077,58.992L40.777,58.891L40.539,59.099L40.602,59.409L40.903,59.51L41.139,59.299Z" style="fill-rule:nonzero;"/>
        <path d="M42.725,58.989L42.661,58.68L42.362,58.578L42.126,58.789L42.188,59.099L42.487,59.2L42.725,58.989Z" style="fill-rule:nonzero;"/>
        <path d="M43.711,53.503L43.648,53.19L43.35,53.089L43.111,53.3L43.174,53.609L43.474,53.711L43.711,53.503Z" style="fill-rule:nonzero;"/>
        <path d="M45.148,57.619L45.086,57.307L44.787,57.205L44.55,57.416L44.611,57.729L44.913,57.827L45.148,57.619Z" style="fill-rule:nonzero;"/>
        <path d="M42.504,38.792L42.211,38.465L41.78,38.557L41.645,38.976L41.939,39.302L42.368,39.212L42.504,38.792Z" style="fill-rule:nonzero;"/>
        <path d="M43.979,51.035L43.684,50.708L43.254,50.798L43.116,51.219L43.412,51.543L43.843,51.452L43.979,51.035Z" style="fill-rule:nonzero;"/>
        <path d="M58.071,48.636L57.898,47.789L57.079,47.513L56.43,48.086L56.603,48.933L57.425,49.208L58.071,48.636Z" style="fill-rule:nonzero;"/>
        <path d="M57.244,49.113L57.12,48.512L56.542,48.319L56.084,48.724L56.205,49.321L56.786,49.517L57.244,49.113Z" style="fill-rule:nonzero;"/>
        <path d="M60.089,46.717L59.96,46.073L59.335,45.862L58.842,46.299L58.973,46.945L59.596,47.154L60.089,46.717Z" style="fill-rule:nonzero;"/>
        <path d="M52.437,49.647L52.349,49.214L51.93,49.074L51.601,49.365L51.688,49.796L52.104,49.936L52.437,49.647Z" style="fill-rule:nonzero;"/>
        <path d="M62.805,46.29L62.739,45.973L62.435,45.871L62.193,46.084L62.254,46.402L62.563,46.502L62.805,46.29Z" style="fill-rule:nonzero;"/>
        <path d="M54.265,50.239L54.199,49.928L53.9,49.827L53.662,50.038L53.725,50.349L54.026,50.447L54.265,50.239Z" style="fill-rule:nonzero;"/>
        <path d="M60.168,48.471L60.105,48.16L59.804,48.06L59.567,48.269L59.631,48.581L59.93,48.681L60.168,48.471Z" style="fill-rule:nonzero;"/>
        <path d="M61.774,47.05L61.711,46.741L61.409,46.641L61.174,46.849L61.237,47.16L61.536,47.261L61.774,47.05Z" style="fill-rule:nonzero;"/>
        <path d="M56.849,41.414L56.762,40.982L56.342,40.841L56.011,41.133L56.101,41.563L56.518,41.705L56.849,41.414Z" style="fill-rule:nonzero;"/>
        <path d="M74.686,52.212L74.598,51.778L74.182,51.639L73.85,51.932L73.938,52.362L74.354,52.502L74.686,52.212Z" style="fill-rule:nonzero;"/>
        <path d="M61.782,44.996L61.681,44.497L61.198,44.334L60.817,44.671L60.919,45.167L61.401,45.331L61.782,44.996Z" style="fill-rule:nonzero;"/>
        <path d="M50.824,51.535L50.724,51.038L50.241,50.875L49.86,51.212L49.961,51.707L50.443,51.872L50.824,51.535Z" style="fill-rule:nonzero;"/>
        <path d="M82.848,54.398L82.746,53.9L82.264,53.738L81.883,54.075L81.984,54.571L82.467,54.733L82.848,54.398Z" style="fill-rule:nonzero;"/>
        <path d="M60.012,42.047L60.089,42.702L60.694,42.962L61.221,42.569L61.144,41.917L60.541,41.655L60.012,42.047Z" style="fill-rule:nonzero;"/>
        <path d="M42.024,36.848L42.076,37.285L42.48,37.46L42.833,37.197L42.782,36.76L42.379,36.585L42.024,36.848Z" style="fill-rule:nonzero;"/>
        <path d="M57.126,38.369L57.164,38.69L57.463,38.817L57.721,38.625L57.683,38.303L57.387,38.176L57.126,38.369Z" style="fill-rule:nonzero;"/>
        <path d="M54.128,38.632L54.163,38.947L54.454,39.073L54.709,38.883L54.673,38.569L54.383,38.443L54.128,38.632Z" style="fill-rule:nonzero;"/>
        <path d="M41.236,38.621L41.273,38.937L41.563,39.061L41.818,38.872L41.78,38.557L41.491,38.432L41.236,38.621Z" style="fill-rule:nonzero;"/>
        <path d="M25.95,38.484L25.985,38.799L26.277,38.923L26.531,38.735L26.494,38.421L26.205,38.295L25.95,38.484Z" style="fill-rule:nonzero;"/>
        <path d="M38.201,36.844L38.236,37.156L38.528,37.281L38.78,37.095L38.746,36.779L38.454,36.655L38.201,36.844Z" style="fill-rule:nonzero;"/>
        <path d="M54.213,37.251L54.248,37.565L54.539,37.691L54.791,37.501L54.755,37.187L54.465,37.061L54.213,37.251Z" style="fill-rule:nonzero;"/>
        <path d="M54.388,37.005L54.418,37.263L54.656,37.365L54.862,37.211L54.832,36.955L54.594,36.852L54.388,37.005Z" style="fill-rule:nonzero;"/>
        <path d="M31.154,38.67L31.205,39.109L31.611,39.283L31.962,39.02L31.912,38.584L31.508,38.409L31.154,38.67Z" style="fill-rule:nonzero;"/>
        <path d="M55.774,37.614L55.824,38.053L56.232,38.227L56.583,37.965L56.531,37.526L56.126,37.353L55.774,37.614Z" style="fill-rule:nonzero;"/>
        <path d="M39.494,38L39.554,38.506L40.021,38.706L40.429,38.405L40.369,37.897L39.903,37.699L39.494,38Z" style="fill-rule:nonzero;"/>
        <path d="M24.237,39.261L24.217,39.109L24.077,39.046L23.953,39.141L23.97,39.292L24.111,39.353L24.237,39.261Z" style="fill-rule:nonzero;"/>
        <path d="M5.631,38.93L5.801,40.192L6.566,41.781L7.551,43.159L8.758,43.702L10.591,43.244L12.14,44.433L14.91,44.058L19.076,47.111L15.93,43.851L17.211,43.46L16.87,40.515L22.46,42.167L16.819,40.095L16.615,38.386L18.274,38.431L19.441,38.057L20.047,36.623L23.809,36.264L15.762,35.336L16.398,42.874L12.264,43.729L11.162,42.982L12.7,42.524L11.662,40.878L11.736,42.331L8.947,43.034L7.927,42.713L7.386,41.898L8.75,42.058L11.195,41.371L11.154,40.313L10.228,39.999L9.641,39.8L9.037,38.954L9.454,37.992L10.92,37.526L11.807,37.714L10.998,37.241L10.032,36.848L10.916,36.105L12.31,35.631L10.785,35.944L9.803,36.703L8.915,36.516L9.275,35.986L11.596,35.167L14.562,34.771L19.967,35L14.72,34.273L11.578,34.579L8.928,35.394L7.824,37.067L5.631,38.93ZM7.562,39.02L6.324,39.142L8.279,37.588L8.742,36.759L9.263,37.618L8.756,38.468L7.885,39.28L8.446,39.372L8.826,40.367L8.62,41.319L7.766,41.418L7.017,41.344L6.576,40.19L7.562,39.02Z" style="fill-rule:nonzero;"/>
        <path d="M21.487,40.899L21.165,40.366L21.469,39.823L22.089,39.812L22.406,40.345L22.106,40.888L21.487,40.899Z" style="fill-rule:nonzero;"/>
        <path d="M22.365,38.254L22.21,37.998L22.357,37.735L22.654,37.729L22.81,37.987L22.663,38.249L22.365,38.254Z" style="fill-rule:nonzero;"/>
        <path d="M22.844,45.502L22.631,45.144L22.831,44.782L23.248,44.775L23.46,45.13L23.26,45.495L22.844,45.502Z" style="fill-rule:nonzero;"/>
        <path d="M21.602,43.637L21.355,43.226L21.588,42.805L22.068,42.797L22.314,43.209L22.082,43.628L21.602,43.637Z" style="fill-rule:nonzero;"/>
        <path d="M19.567,39.003L19.845,38.896L20.078,39.08L20.034,39.375L19.756,39.486L19.523,39.298L19.567,39.003Z" style="fill-rule:nonzero;"/>
        <path d="M18.454,39.689L18.732,39.581L18.967,39.766L18.922,40.06L18.644,40.17L18.409,39.983L18.454,39.689Z" style="fill-rule:nonzero;"/>
        <path d="M18.33,39.944L18.557,39.854L18.748,40.007L18.711,40.248L18.483,40.337L18.293,40.185L18.33,39.944Z" style="fill-rule:nonzero;"/>
        <path d="M19.3,42.28L19.687,42.128L20.01,42.386L19.949,42.797L19.562,42.949L19.236,42.691L19.3,42.28Z" style="fill-rule:nonzero;"/>
        <path d="M18.38,41.914L18.142,41.722L17.858,41.834L17.812,42.136L18.052,42.325L18.335,42.214L18.38,41.914Z" style="fill-rule:nonzero;"/>
        <path d="M13.819,40.815L13.899,41.214L14.284,41.347L14.59,41.078L14.512,40.678L14.127,40.546L13.819,40.815Z" style="fill-rule:nonzero;"/>
        <path d="M14.189,40.648L14.264,41.018L14.617,41.14L14.902,40.891L14.83,40.522L14.472,40.4L14.189,40.648Z" style="fill-rule:nonzero;"/>
        <path d="M13.843,39.295L13.923,39.693L14.307,39.822L14.61,39.556L14.534,39.158L14.148,39.027L13.843,39.295Z" style="fill-rule:nonzero;"/>
        <path d="M13.233,36.937L13.31,37.334L13.693,37.466L14.001,37.2L13.921,36.801L13.537,36.671L13.233,36.937Z" style="fill-rule:nonzero;"/>
        <path d="M14.298,37.914L14.392,38.384L14.844,38.539L15.202,38.224L15.11,37.756L14.658,37.6L14.298,37.914Z" style="fill-rule:nonzero;"/>
        <path d="M12.366,38.375L12.46,38.857L12.928,39.016L13.299,38.692L13.203,38.209L12.737,38.051L12.366,38.375Z" style="fill-rule:nonzero;"/>
        <path d="M12.425,38.011L12.477,38.277L12.734,38.364L12.938,38.187L12.885,37.919L12.629,37.832L12.425,38.011Z" style="fill-rule:nonzero;"/>
        <path d="M14.813,36.089L14.761,35.823L14.506,35.735L14.301,35.915L14.353,36.179L14.612,36.267L14.813,36.089Z" style="fill-rule:nonzero;"/>
        <path d="M15.623,40.148L15.578,39.912L15.349,39.835L15.167,39.992L15.214,40.229L15.443,40.308L15.623,40.148Z" style="fill-rule:nonzero;"/>
        <path d="M13.31,40.033L13.264,39.797L13.036,39.719L12.855,39.878L12.901,40.112L13.129,40.192L13.31,40.033Z" style="fill-rule:nonzero;"/>
        <path d="M15.489,42.057L15.459,41.916L15.323,41.869L15.214,41.963L15.241,42.107L15.378,42.154L15.489,42.057Z" style="fill-rule:nonzero;"/>
        <path d="M13.832,41.827L13.805,41.686L13.666,41.639L13.557,41.733L13.587,41.876L13.723,41.924L13.832,41.827Z" style="fill-rule:nonzero;"/>
        <path d="M12.785,36.081L12.755,35.938L12.619,35.89L12.509,35.986L12.537,36.13L12.674,36.177L12.785,36.081Z" style="fill-rule:nonzero;"/>
        <path d="M51.924,38.018L51.889,37.705L51.598,37.579L51.344,37.768L51.381,38.083L51.669,38.208L51.924,38.018Z" style="fill-rule:nonzero;"/>
        <path d="M51.749,38.261L51.719,38.006L51.482,37.905L51.275,38.057L51.304,38.314L51.543,38.416L51.749,38.261Z" style="fill-rule:nonzero;"/>
        <path d="M50.36,37.652L50.311,37.217L49.906,37.041L49.553,37.304L49.605,37.743L50.008,37.917L50.36,37.652Z" style="fill-rule:nonzero;"/>
        <path d="M40.227,36.722L40.744,37.13L41.355,36.888L41.451,36.237L40.934,35.83L40.323,36.072L40.227,36.722Z" style="fill-rule:nonzero;"/>
        <path d="M34.808,38.083L35.055,38.279L35.35,38.164L35.396,37.85L35.147,37.654L34.854,37.77L34.808,38.083Z" style="fill-rule:nonzero;"/>
        <path d="M29.026,39L29.424,39.314L29.896,39.127L29.97,38.624L29.57,38.309L29.1,38.497L29.026,39Z" style="fill-rule:nonzero;"/>
        <path d="M29.892,50.94L25.61,49.425L23.46,47.645L22.212,44.688L23.078,47.89L25.355,49.946L29.764,51.519L32.966,51.713L31.228,52.598L32.173,52.768L34.702,51.314L29.892,50.94Z" style="fill-rule:nonzero;"/>
        <path d="M94.172,46.214L92.564,45.903L91.212,46.481L87.616,50.902L82.987,52.597L79.185,52.205L64.251,44.652L58.654,38.146L58.61,38.095L54.631,36.07L49.956,35.314L49.929,35.31L38.824,35.378L38.787,35.378L28.993,37.651L26.609,36.966L22.21,37.067L26.582,37.522L28.954,38.358L38.867,36.057L49.876,35.989L54.418,36.723L58.184,38.64L63.825,45.197L78.937,52.837L78.992,52.867L83.076,53.289L88.028,51.476L90.286,48.694L90.812,49.919L91.974,50.215L89.335,53.218L83.793,55.448L77.999,54.886L66.063,48.904L66.008,48.874L62.355,48.708L61.067,50.392L57.238,52.176L53.521,52.91L50.598,53.189L49.425,54.003L50.191,51.225L51.737,48.717L57.082,50.846L60.218,48.982L57.104,50.34L51.451,47.98L49.462,51.071L48.282,54.794L48.143,57.727L47.31,58.615L44.364,58.615L38.777,56.332L34.943,56.691L34.444,55.762L36.37,54.386L40.527,54.706L45.555,55.301L44.716,50.184L44.71,50.184L43.979,46.883L43.979,44.174L46.74,39.542L48.782,38.959L54.707,41.015L55.737,40.389L54.71,40.743L48.737,38.501L46.421,39.112L43.359,44.051L43.359,47.018L43.997,50.277L39.713,50.824L39.82,47.724L32.103,43.928L31.512,43.144L31.898,44.051L39.159,48.206L39.006,51.673L33.823,55.37L30.648,57.089L31.414,58.429L34.676,60.11L34.975,61.028L33.875,61.445L29.16,59.433L27.795,58.657L27.264,57.09L32.175,52.765L25.073,51.502L20.821,47.608L17.943,44.685L20.436,47.924L24.79,52.14L30.666,53.187L26.474,56.878L27.234,59.12L28.841,60.032L33.611,62.068L32.931,62.379L28.527,61.83L27.344,63.141L27.344,64.728L29.037,65.372L34.274,65.723L42.859,61.572L44.473,59.297L47.605,59.297L48.811,58.012L48.944,55.164L50.84,53.852L53.605,53.586L57.45,52.826L61.507,50.938L62.66,49.43L65.804,49.535L77.742,55.52L83.897,56.007L89.744,53.782L93.759,49.209L94.37,47.566L94.172,46.214ZM44.151,50.945L44.737,54.525L41.708,54.167L43.058,51.086L44.151,50.945ZM39.669,52.039L39.687,51.516L42.271,51.185L41.002,54.081L40.599,54.034L37.233,53.776L39.669,52.039ZM31.903,57.921L31.581,57.359L33.864,56.126L34.557,57.417L38.673,57.03L39.561,57.392L37.68,60.22L35.712,61.114L35.232,59.639L31.903,57.921ZM42.405,61.039L34.139,65.035L29.182,64.704L28.022,64.263L28.022,63.405L28.792,62.553L33.036,63.078L38.138,60.757L40.203,57.654L43.772,59.112L42.405,61.039Z" style="fill-rule:nonzero;"/>
    </g>
</svg>
